<svg  viewBox="0 0 19 20" fill="none" xmlns="http://www.w3.org/2000/svg">
<path d="M12.7375 0C13.0587 0.156769 13.0844 0.202283 13.0404 0.648822C12.9555 1.50701 12.867 2.36519 12.775 3.22287C12.7502 3.45449 12.5782 3.59103 12.3623 3.56878C12.1595 3.54804 12.0103 3.37206 12.0316 3.15764C12.1201 2.2681 12.2202 1.37957 12.3021 0.489525C12.3249 0.239705 12.4225 0.0758561 12.6622 0H12.738H12.7375Z" fill="currentColor" />
<path d="M6.69382 13.3933C7.05489 13.9264 7.39321 14.4265 7.73204 14.9266C8.18464 15.5947 8.64382 16.2577 9.08834 16.9313C9.66485 17.8046 9.31136 18.8889 8.34445 19.2434C7.68146 19.4861 6.94617 19.2297 6.51278 18.5935C5.66066 17.3439 4.81258 16.0913 3.963 14.8402C3.92052 14.778 3.87703 14.7168 3.85073 14.6783C3.54377 14.7866 3.25753 14.9277 2.95562 14.9863C1.46278 15.2756 0.33758 14.246 0.0634866 13.0555C-0.163576 12.0674 0.229357 11.105 1.06731 10.528C1.58111 10.174 2.1025 9.83114 2.61478 9.47512C2.70277 9.41393 2.78369 9.3224 2.83122 9.22682C3.79358 7.28692 4.74988 5.3445 5.70819 3.40309C6.00808 2.79523 6.59622 2.48725 7.27639 2.55906C8.08249 2.64453 8.77531 3.00004 9.39581 3.48502C11.4854 5.11643 12.8928 7.20904 13.5451 9.78765C13.7085 10.4339 13.758 11.0969 13.5633 11.7503C13.3798 12.3662 13.0116 12.8168 12.3471 12.9311C12.0068 12.9898 11.6568 12.9908 11.3114 13.0191C10.2752 13.1036 9.23904 13.189 8.20234 13.273C7.81294 13.3043 7.42304 13.3316 7.03314 13.3615C6.93352 13.3691 6.8344 13.3802 6.69382 13.3938V13.3933ZM6.16282 4.66534C6.18558 4.89341 6.19468 5.11491 6.23312 5.33135C6.27661 5.57864 6.33122 5.82593 6.40708 6.06513C7.03668 8.05509 8.15936 9.72544 9.71592 11.1055C10.2176 11.5505 10.7713 11.9283 11.4237 12.1245C11.6063 12.1796 11.8111 12.2287 11.9936 12.2004C12.4397 12.1321 12.694 11.8221 12.8114 11.4054C12.9752 10.8228 12.9165 10.2357 12.7502 9.66982C12.075 7.37947 10.7739 5.51037 8.88758 4.05141C8.45722 3.71865 7.9773 3.46529 7.43771 3.34544C6.80709 3.20536 6.33578 3.51283 6.21997 4.14648C6.18861 4.31893 6.18154 4.49643 6.16384 4.66483L6.16282 4.66534ZM5.48265 5.55336C5.45484 5.60494 5.42651 5.65298 5.40173 5.70305C4.78982 6.95164 4.17994 8.20074 3.56349 9.44731C3.50533 9.56463 3.51039 9.64453 3.58422 9.75174C4.229 10.6919 4.86872 11.6355 5.5054 12.5812C5.57772 12.6884 5.64953 12.7248 5.78101 12.7122C6.35802 12.6575 6.93605 12.6156 7.51357 12.57C8.36113 12.5033 9.2092 12.4376 10.0568 12.3703C10.0704 12.3693 10.0821 12.3511 10.0841 12.3491C7.74164 10.6342 6.20632 8.38178 5.48214 5.55285L5.48265 5.55336ZM4.89552 13.0161C4.24113 12.0527 3.60142 11.1116 2.9531 10.1573C2.43981 10.5083 1.93612 10.8415 1.44508 11.192C1.00208 11.5081 0.768948 11.9501 0.764903 12.4962C0.760351 13.1764 1.07339 13.6988 1.63826 14.0523C2.17128 14.386 2.74778 14.4022 3.28737 14.0831C3.83354 13.7605 4.34683 13.3832 4.89502 13.0161H4.89552ZM4.45809 14.2197C4.49804 14.2839 4.52838 14.338 4.56276 14.3886C4.80247 14.7436 5.04319 15.0976 5.2839 15.4521C5.90289 16.3639 6.52288 17.2752 7.14035 18.188C7.33859 18.4808 7.60662 18.6365 7.9596 18.5718C8.55482 18.4626 8.79452 17.8324 8.44407 17.3131C7.60864 16.0761 6.76968 14.8422 5.93172 13.6073C5.83412 13.4636 5.66116 13.41 5.51451 13.5051C5.16153 13.7337 4.81714 13.9754 4.45859 14.2192L4.45809 14.2197Z" fill="currentColor" />
<path d="M17.3086 3.20353C17.2186 3.33097 17.1701 3.45891 17.0775 3.52112C16.2259 4.09206 15.3677 4.6534 14.508 5.2122C14.3108 5.34065 14.0741 5.28401 13.9598 5.10246C13.8491 4.92648 13.8992 4.70751 14.0949 4.57804C14.945 4.0157 15.7945 3.45183 16.6553 2.90618C16.7559 2.84246 16.941 2.84499 17.0573 2.89151C17.1569 2.93146 17.2136 3.07812 17.3091 3.20353H17.3086Z" fill="currentColor" />
<path d="M14.8787 6.98535C15.4082 7.08042 15.8906 7.1664 16.3731 7.25287C16.8924 7.34643 17.4118 7.44251 17.9317 7.53354C18.1724 7.57551 18.3236 7.7424 18.2968 7.95176C18.2685 8.17579 18.0561 8.32244 17.8073 8.27946C17.386 8.20714 16.9663 8.12774 16.5455 8.05189C15.9953 7.95277 15.4446 7.85365 14.8939 7.75554C14.7285 7.72621 14.5727 7.65744 14.5459 7.48398C14.5282 7.36817 14.5626 7.22051 14.6274 7.1224C14.6789 7.04401 14.8119 7.01873 14.8787 6.98535Z" fill="currentColor" />
<path d="M8.91943 6.20718C9.76194 6.20718 10.5342 6.75891 10.8062 7.60193C11.0753 8.43381 10.783 9.34459 10.0836 9.85738C9.90556 9.98785 9.72148 10.001 9.57887 9.89025C9.43677 9.78051 9.39125 9.6288 9.45548 9.47001C9.4929 9.37797 9.57988 9.29908 9.65979 9.23283C10.2242 8.76859 10.3096 7.96705 9.84993 7.41178C9.47369 6.95765 8.81727 6.82465 8.29083 7.09672C8.24077 7.12251 8.19374 7.15488 8.14368 7.18168C7.9419 7.28839 7.72293 7.23276 7.61774 7.04969C7.51306 6.86764 7.56312 6.66637 7.75226 6.54095C8.08603 6.31945 8.45266 6.20314 8.91943 6.20769V6.20718Z" fill="currentColor" />
</svg>
