<svg  viewBox="0 0 20 20" fill="none" xmlns="http://www.w3.org/2000/svg">
<path d="M11.4853 11.8607C11.0522 12.0663 10.7038 12.2323 10.3406 12.4047C10.3604 12.4387 10.3943 12.5023 10.4346 12.5609C11.6684 14.3599 12.9056 16.1575 14.1344 17.9608C14.2334 18.1057 14.3358 18.1566 14.5054 18.153C15.0043 18.1431 15.5038 18.1467 16.0034 18.1516C16.1306 18.153 16.2119 18.1318 16.2811 18.0004C16.5256 17.5354 17.0019 17.3341 17.4739 17.4726C17.9713 17.6181 18.2554 18.0364 18.2193 18.5699C18.1883 19.0313 17.8145 19.4129 17.3163 19.4913C16.9319 19.5521 16.4959 19.3408 16.3009 18.9628C16.2203 18.8073 16.1292 18.7678 15.9681 18.7699C15.4099 18.7784 14.8509 18.7656 14.2927 18.777C14.0475 18.7819 13.8885 18.6964 13.7486 18.4901C12.4209 16.5398 11.0826 14.5974 9.75062 12.6499C9.64533 12.4959 9.53793 12.4118 9.33443 12.3835C8.0484 12.2027 7.08246 11.0558 7.08599 9.74506C7.08953 8.4343 8.03921 7.3115 9.31747 7.12213C9.51673 7.09245 9.64392 7.00765 9.7598 6.83878C11.0833 4.8963 12.4188 2.96161 13.7416 1.01843C13.8857 0.806445 14.044 0.711052 14.3033 0.718825C14.8615 0.735077 15.4205 0.720238 15.9787 0.726597C16.1257 0.728011 16.2168 0.704693 16.2945 0.552065C16.5157 0.116793 16.9997 -0.086004 17.4505 0.0341197C17.9084 0.156363 18.2165 0.547825 18.2229 1.01489C18.2285 1.4968 17.9155 1.91936 17.4668 2.03453C17.0033 2.15324 16.527 1.96105 16.3009 1.53567C16.2218 1.38728 16.1412 1.33146 15.973 1.33499C15.4657 1.347 14.9576 1.33358 14.4503 1.34488C14.3648 1.347 14.2475 1.39505 14.2016 1.46147C12.9226 3.31208 11.6507 5.16693 10.3781 7.02249C10.3604 7.04793 10.3534 7.08044 10.347 7.09669C10.7123 7.27051 11.0656 7.43939 11.4514 7.62311C11.715 7.35813 11.9991 7.07054 12.2852 6.78437C12.7876 6.28126 13.2936 5.78169 13.791 5.27363C13.9189 5.14291 14.051 5.08426 14.2369 5.08638C15.1845 5.09415 16.132 5.08991 17.0838 5.08991C17.2824 4.63486 17.6025 4.35716 18.1155 4.36705C18.6306 4.37695 19.0298 4.74226 19.1139 5.27293C19.1839 5.71456 18.8942 6.18869 18.4511 6.35757C17.9904 6.53352 17.4569 6.36605 17.2174 5.93361C17.1121 5.74282 16.9983 5.68841 16.7885 5.69195C16.002 5.70608 15.2141 5.69477 14.4277 5.70113C14.3358 5.70184 14.2192 5.7301 14.1577 5.79016C13.4455 6.48971 12.7417 7.19844 12.0344 7.90364C11.9807 7.95734 11.9157 7.99903 11.8881 8.02093C12.0535 8.41593 12.245 8.75934 12.3347 9.12749C12.4032 9.4066 12.517 9.45535 12.7721 9.45323C14.2531 9.44193 15.7342 9.44546 17.2152 9.45041C17.3799 9.45041 17.4838 9.42355 17.5707 9.25326C17.7947 8.81587 18.2893 8.62508 18.7585 8.75863C19.1966 8.883 19.4969 9.29707 19.4919 9.76979C19.487 10.2369 19.1803 10.6276 18.721 10.7513C18.2695 10.8728 17.7869 10.6707 17.5643 10.2354C17.4873 10.0849 17.3976 10.0588 17.2492 10.0595C15.7172 10.0637 14.186 10.0644 12.6541 10.0588C12.4718 10.0581 12.4138 10.1047 12.3594 10.2955C12.2506 10.6799 12.0718 11.0445 11.9065 11.4536C11.9037 11.4501 11.9383 11.496 11.9786 11.537C12.6781 12.2373 13.3755 12.9411 14.0836 13.6328C14.1691 13.7162 14.3118 13.7833 14.4291 13.7848C15.2495 13.7975 16.0705 13.7883 16.8916 13.7946C17.0386 13.7961 17.1114 13.7459 17.182 13.6166C17.4188 13.1813 17.8809 12.9884 18.3416 13.1114C18.8044 13.2343 19.1287 13.6512 19.1231 14.1154C19.1174 14.5846 18.7959 14.9839 18.3253 15.1075C17.8816 15.2241 17.4138 15.0312 17.1884 14.603C17.1043 14.444 17.0047 14.4186 16.8499 14.42C15.9949 14.4249 15.1406 14.4179 14.2856 14.4256C14.0744 14.4278 13.9175 14.3606 13.7698 14.2108C13.0568 13.4873 12.3354 12.7729 11.6203 12.0514C11.5553 11.9857 11.5122 11.8988 11.4861 11.8607H11.4853ZM9.73507 11.7956C10.8918 11.7956 11.8076 10.8898 11.8054 9.74789C11.8026 8.60247 10.884 7.69448 9.73225 7.69943C8.61368 7.70437 7.70569 8.61661 7.70216 9.738C7.69862 10.8792 8.60379 11.7956 9.73507 11.7956ZM18.0879 13.6936C17.8618 13.6915 17.6654 13.8851 17.6661 14.1084C17.6668 14.3288 17.8703 14.5274 18.0907 14.5232C18.3112 14.5189 18.485 14.343 18.49 14.1183C18.4956 13.8816 18.3197 13.6957 18.0879 13.6943V13.6936ZM16.7948 1.04457C16.7976 1.28906 16.9672 1.45087 17.2131 1.44239C17.4371 1.43462 17.6102 1.25938 17.6117 1.03892C17.6124 0.816337 17.4152 0.61778 17.194 0.619193C16.963 0.620606 16.792 0.802911 16.7948 1.04457ZM18.49 5.39164C18.4893 5.15422 18.3112 4.97898 18.0745 4.98322C17.8554 4.98746 17.6731 5.16552 17.6668 5.38245C17.6597 5.60645 17.8498 5.80076 18.078 5.80359C18.3133 5.80642 18.4907 5.62906 18.49 5.39164ZM18.0639 9.74648C18.0625 9.98743 18.2363 10.169 18.4667 10.1683C18.6864 10.1669 18.8843 9.96482 18.8807 9.74436C18.8772 9.52389 18.702 9.35077 18.478 9.34512C18.2321 9.33876 18.0653 9.49987 18.0639 9.74648ZM16.7948 18.4576C16.7927 18.7042 16.9566 18.8716 17.199 18.8702C17.4223 18.8688 17.6025 18.6985 17.6117 18.4802C17.6208 18.2597 17.4293 18.0541 17.2082 18.0463C16.9785 18.0385 16.7969 18.2194 16.7948 18.4576Z" fill="currentColor"/>
<path d="M7.86139 17.7038C7.05656 17.3702 6.28141 17.048 5.4674 16.711C5.17557 17.0035 4.84275 17.3392 4.50782 17.6727C4.26404 17.915 4.13685 17.915 3.89095 17.6691C3.202 16.9816 2.51377 16.2934 1.82694 15.6044C1.59376 15.3705 1.59235 15.2363 1.8227 15.0066C2.15763 14.6724 2.49751 14.3417 2.82397 14.0202C2.6134 13.5701 2.40212 13.149 2.2177 12.7165C2.09899 12.4381 2.00289 12.1463 1.93152 11.8523C1.887 11.6721 1.80716 11.6312 1.63686 11.6361C1.22279 11.6481 0.807302 11.6418 0.393229 11.6389C0.118357 11.6368 0.00459297 11.5322 0.00317975 11.2574C-0.00105992 10.2504 -0.00105992 9.24282 0.00317975 8.2359C0.00459297 7.96739 0.121184 7.85433 0.397468 7.85009C0.829207 7.84302 1.26095 7.84444 1.69198 7.85009C1.8227 7.85221 1.88842 7.81264 1.92233 7.67838C2.11241 6.91948 2.42403 6.21005 2.84163 5.51545C2.51589 5.19041 2.18802 4.86466 1.86156 4.5375C1.58033 4.25627 1.57892 4.14039 1.8545 3.8641C2.53072 3.18717 3.20624 2.51094 3.88318 1.83542C4.14038 1.57822 4.26051 1.57822 4.517 1.8333C4.81166 2.12513 5.10844 2.41484 5.39603 2.71374C5.49071 2.81196 5.56279 2.81832 5.67797 2.74907C6.34854 2.3463 7.06999 2.06437 7.86139 1.86722C7.86139 1.41005 7.86139 0.947215 7.86139 0.484385C7.86139 0.0745515 7.92569 0.00813016 8.32634 0.00742355C8.77504 0.00671694 9.22373 0.0053036 9.67173 0.00813004C9.9579 0.0102499 10.0554 0.101403 10.0561 0.38758C10.0597 1.81776 10.0597 3.24864 10.0561 4.67882C10.0554 4.98267 9.96285 5.05969 9.59471 5.07099C8.48674 5.10562 7.50243 5.47729 6.68488 6.21782C5.26177 7.50668 4.73888 9.12057 5.24199 10.9712C5.73873 12.7964 6.98166 13.9199 8.83651 14.3375C9.10644 14.3982 9.38838 14.4145 9.66537 14.4336C9.95154 14.4534 10.0554 14.5346 10.0561 14.8137C10.0597 16.2524 10.0597 17.6918 10.0561 19.1304C10.0561 19.3904 9.94448 19.4986 9.68091 19.5021C9.20678 19.5085 8.73335 19.5077 8.25921 19.5021C7.9688 19.4993 7.86351 19.389 7.8621 19.1C7.85998 18.6181 7.8621 18.1362 7.8621 17.7024L7.86139 17.7038ZM9.43148 15.0618C6.42485 14.7819 4.64914 12.4968 4.46754 10.1904C4.3665 8.90647 4.67741 7.72078 5.43701 6.67217C6.41708 5.31901 7.76176 4.59686 9.42441 4.44564V0.636307H8.4712C8.4712 1.11115 8.46272 1.56691 8.47473 2.02268C8.48109 2.27282 8.37015 2.39435 8.13556 2.44382C7.28409 2.62329 6.49551 2.96035 5.75781 3.41894C5.47587 3.59418 5.39673 3.58428 5.16355 3.3511C4.8477 3.03525 4.53467 2.71727 4.23365 2.41414C3.62032 3.02677 3.0303 3.61749 2.41979 4.2273C2.73564 4.54103 3.06139 4.87102 3.3942 5.19324C3.56096 5.35434 3.58216 5.51333 3.45426 5.71047C2.97165 6.45453 2.63389 7.26219 2.44805 8.1292C2.39364 8.38146 2.25656 8.48674 2.00571 8.48039C1.70116 8.47332 1.39661 8.47897 1.09136 8.47897C0.942971 8.47897 0.794583 8.47897 0.653261 8.47897V11.032C1.10549 11.032 1.53582 11.032 1.96685 11.032C2.32369 11.032 2.38658 11.0772 2.4636 11.4305C2.64096 12.2396 2.95964 12.9893 3.39208 13.693C3.61113 14.0492 3.6076 14.0909 3.31294 14.3855C3.00981 14.6887 2.70596 14.9904 2.44028 15.2554C3.05503 15.8729 3.64363 16.4644 4.24708 17.0706C4.54386 16.771 4.86536 16.4594 5.17133 16.1337C5.35504 15.938 5.52816 15.9252 5.75075 16.0694C6.47361 16.5372 7.25724 16.8615 8.09881 17.0494C8.43445 17.1243 8.4712 17.1816 8.4719 17.5405C8.4719 17.9779 8.4719 18.416 8.4719 18.8548H9.43289V15.0625L9.43148 15.0618Z" fill="currentColor"/>
</svg>
