<svg  viewBox="0 0 7 12" fill="none" xmlns="http://www.w3.org/2000/svg">
<path d="M1.325 11.2L6.275 6.25C6.35833 6.16667 6.41667 6.08333 6.45 6C6.48333 5.91667 6.5 5.825 6.5 5.725C6.5 5.625 6.48333 5.53333 6.45 5.45C6.41667 5.36667 6.35833 5.28333 6.275 5.2L1.3 0.225C1.15 0.0749995 0.970833 -4.83375e-07 0.7625 -5.01588e-07C0.554167 -5.19801e-07 0.375 0.0749995 0.225 0.224999C0.0749998 0.374999 0.00416655 0.558333 0.0124997 0.774999C0.0208329 0.991666 0.0999998 1.175 0.25 1.325L4.65 5.725L0.224999 10.15C0.0749989 10.3 -9.15754e-07 10.475 -9.33238e-07 10.675C-9.50723e-07 10.875 0.0749988 11.05 0.224999 11.2C0.374999 11.35 0.558332 11.425 0.774999 11.425C0.991666 11.425 1.175 11.35 1.325 11.2Z" fill="currentColor"/>
</svg>
