<svg  viewBox="0 0 66 66" fill="none" xmlns="http://www.w3.org/2000/svg">
<mask id="mask0_1_1289" style="mask-type:alpha" maskUnits="userSpaceOnUse" x="0" y="0" width="66" height="66">
<rect width="66" height="66" rx="10" fill="#0077B5"/>
</mask>
<g mask="url(#mask0_1_1289)">
<g opacity="0.5">
<path d="M29.503 59.1553C28.5921 58.9847 27.6676 58.8704 26.775 58.6328C21.9131 57.3381 18.3397 54.4335 16.0534 49.9508C16.0017 49.8503 15.9514 49.7482 15.86 49.5654C15.6422 49.9736 15.4548 50.3301 15.2644 50.685C14.9233 51.3171 14.3932 51.5303 13.8662 51.2531C13.3666 50.9911 13.2234 50.4336 13.5265 49.8259C14.0596 48.7551 14.5988 47.6889 15.1502 46.6272C15.5036 45.9449 15.9681 45.7925 16.6566 46.1337C17.7274 46.6638 18.7936 47.206 19.8553 47.7559C20.4721 48.0758 20.6747 48.5891 20.4249 49.1115C20.169 49.6431 19.6039 49.7893 18.9657 49.4816C18.5895 49.3004 18.2194 49.1085 17.8401 48.9181C17.9833 50.4001 20.99 53.7541 23.4789 55.2026C26.0271 56.6862 28.7825 57.3808 31.7207 57.1767C40.4698 56.5689 45.222 49.3019 45.3515 43.6236C45.2708 43.6007 45.184 43.5657 45.0941 43.5504C43.6654 43.322 42.6129 42.3243 42.5748 40.8834C42.5078 38.3397 42.459 35.7854 42.6144 33.2493C42.7758 30.6051 44.2563 28.7453 46.6462 27.6136C46.73 27.574 46.8153 27.5359 46.9767 27.4628C45.0179 25.6807 44.1604 23.5102 44.6143 20.9178C44.922 19.1615 45.8374 17.7435 47.2768 16.6818C50.1449 14.5646 54.1417 15.0292 56.4813 17.7511C58.6822 20.3115 58.8818 24.5353 55.6481 27.4491C55.8095 27.5313 55.9543 27.606 56.1005 27.6776C58.603 28.9266 59.9556 30.9554 60.0485 33.7397C60.1247 36.0169 60.0759 38.3001 60.0637 40.5803C60.0546 42.3228 58.8269 43.5565 57.0768 43.5657C54.0366 43.5809 50.9948 43.5794 47.9531 43.5611C47.4992 43.5581 47.3347 43.6738 47.2981 44.149C46.73 51.5349 40.8186 57.8438 33.4647 58.939C33.0565 58.9999 32.6514 59.0821 32.2447 59.1537H29.5075L29.503 59.1553ZM54.2285 41.5886C54.2285 40.7402 54.2285 39.9284 54.2285 39.1165C54.2285 37.3877 54.2209 35.6589 54.2331 33.9317C54.2392 33.1868 54.8149 32.7299 55.4744 32.9355C56.038 33.1122 56.1766 33.5646 56.1751 34.1038C56.1706 36.2499 56.169 38.3961 56.1751 40.5422C56.1782 41.2246 56.5574 41.6267 57.1515 41.6191C57.7165 41.6115 58.108 41.2124 58.1111 40.5696C58.1202 38.2712 58.1568 35.9727 58.0974 33.6758C58.0334 31.1869 56.1355 29.2038 53.6406 29.0347C52.1661 28.9342 50.6765 28.9311 49.199 29.0119C46.4101 29.1642 44.5321 31.1504 44.4864 33.9438C44.4513 36.1083 44.4742 38.2742 44.4818 40.4401C44.4848 41.2139 44.858 41.6343 45.4855 41.6191C46.0872 41.6038 46.4193 41.2017 46.4253 40.4417C46.4345 39.2262 46.4284 38.0107 46.4284 36.7952C46.4284 35.8463 46.4116 34.8958 46.436 33.9469C46.4558 33.1884 47.0148 32.7421 47.6759 32.937C48.2501 33.1061 48.3826 33.5631 48.3811 34.0977C48.378 36.5926 48.3811 39.0891 48.3811 41.5917H54.227L54.2285 41.5886ZM51.3116 27.0272C53.9939 27.0226 56.169 24.8536 56.1705 22.1789C56.1721 19.5149 53.9833 17.32 51.3177 17.3124C48.6172 17.3048 46.4192 19.5058 46.4375 22.1987C46.4558 24.8841 48.6233 27.0317 51.3116 27.0272Z" fill="white"/>
<path d="M1.67957 28.8256C1.84711 27.9909 1.96287 27.141 2.18982 26.3231C3.70537 20.8747 8.3038 17.0318 14.0096 16.4118C14.1025 16.4012 14.1954 16.3936 14.2457 16.3875C15.5175 7.77551 20.1251 2.12761 28.9 0.977619C36.7504 -0.0520403 42.4105 3.65383 46.0813 10.6482C46.2565 10.3161 46.4317 9.97496 46.6144 9.63681C46.9404 9.03669 47.4583 8.83106 47.9746 9.09304C48.4895 9.35503 48.6479 9.90185 48.3478 10.5065C47.8086 11.5956 47.2618 12.6786 46.6997 13.7554C46.3662 14.3937 45.8757 14.5505 45.2238 14.2276C44.1347 13.69 43.0533 13.1386 41.9764 12.578C41.3748 12.2658 41.1844 11.7312 41.457 11.2087C41.7266 10.6924 42.2582 10.5583 42.8796 10.8569C43.2985 11.0595 43.7128 11.2727 44.1819 11.5088C42.3892 6.81286 36.8053 2.00729 29.424 2.75668C21.6361 3.54721 16.6447 9.93688 16.3461 16.3418C17.0255 16.4652 17.717 16.5611 18.3932 16.7211C24.7509 18.2198 29.1224 23.9241 28.9198 30.4387C28.7203 36.8512 23.9574 42.298 17.5905 43.3947C9.93511 44.7138 2.64068 39.241 1.7877 31.5445C1.77095 31.3967 1.71917 31.252 1.68261 31.1058C1.68261 30.3458 1.68261 29.5857 1.68261 28.8256H1.67957ZM15.3439 18.2975C8.91154 18.2686 3.6612 23.4428 3.62008 29.8538C3.57743 36.3348 8.77294 41.5928 15.251 41.6233C21.7 41.6537 26.955 36.4506 26.9808 30.0076C27.0083 23.5662 21.8021 18.3265 15.3439 18.2975Z" fill="white"/>
<path d="M16.2724 36.6557C16.2724 37.0121 16.2892 37.3716 16.2694 37.728C16.2374 38.3068 15.8185 38.7196 15.2945 38.7181C14.7675 38.7165 14.2969 38.2931 14.3517 37.7204C14.4248 36.9619 14.1902 36.5841 13.4591 36.2505C12.172 35.6626 11.5475 34.5126 11.412 33.1113C11.3495 32.4609 11.7136 31.975 12.2802 31.9141C12.8437 31.8516 13.255 32.2385 13.3449 32.9148C13.5139 34.1806 14.4111 34.9574 15.526 34.8066C16.5374 34.6695 17.2472 33.8576 17.2335 32.8524C17.2213 31.8699 16.5252 31.0581 15.5276 30.9682C14.5634 30.8814 13.6556 30.7108 12.8742 30.0832C10.5834 28.2417 11.0662 24.6014 13.7881 23.4925C14.2633 23.2991 14.3837 23.063 14.3349 22.6213C14.3166 22.4522 14.3243 22.2786 14.3395 22.1095C14.3867 21.5992 14.7843 21.2184 15.2717 21.2032C15.7515 21.188 16.309 21.5733 16.2343 22.0501C16.0774 23.066 16.6501 23.4011 17.4071 23.823C18.5373 24.4536 19.0902 25.5381 19.1755 26.8374C19.2197 27.503 18.8603 27.9645 18.286 28.0102C17.7483 28.0529 17.3447 27.6736 17.2457 27.0308C17.0279 25.6249 16.0805 24.8755 14.8726 25.1512C13.9587 25.3599 13.3159 26.1809 13.3494 27.0948C13.386 28.0727 14.1141 28.8419 15.0935 28.9652C15.6007 29.0292 16.1246 29.0627 16.6029 29.2226C18.1246 29.7299 19.1283 31.151 19.1786 32.7716C19.2273 34.3435 18.2952 35.8073 16.8405 36.4348C16.6684 36.5095 16.4902 36.5704 16.2724 36.6542V36.6557Z" fill="white"/>
</g>
</g>
</svg>
