<svg  viewBox="0 0 16 19" fill="none" xmlns="http://www.w3.org/2000/svg">
<path d="M7.76885 15.7067C5.73804 15.7067 3.70722 15.7078 1.6764 15.7062C0.846159 15.7057 0.200827 15.1847 0.0317238 14.3723C-0.0546716 13.9562 0.0412062 13.5705 0.248766 13.2002C0.520595 12.715 0.802434 12.2309 1.02474 11.7225C1.29341 11.1088 1.364 10.4477 1.36348 9.7781C1.36295 8.52958 1.3403 7.27949 1.38929 6.03307C1.45409 4.4021 2.10785 3.00502 3.26681 1.86291C4.68759 0.463203 6.41603 -0.145253 8.39733 0.0291187C11.2457 0.280403 13.6195 2.5014 14.0789 5.31978C14.1463 5.7328 14.1742 6.15529 14.18 6.57357C14.1953 7.75624 14.1795 8.93944 14.1948 10.1221C14.2058 10.9792 14.464 11.7742 14.8849 12.5164C15.0113 12.7393 15.1457 12.9568 15.2784 13.176C15.6161 13.7339 15.6487 14.3075 15.3269 14.876C15.0039 15.4454 14.4914 15.7067 13.8408 15.7067C11.8168 15.7067 9.7923 15.7067 7.76833 15.7067H7.76885ZM7.76464 14.5657C9.78176 14.5657 11.7984 14.5667 13.8155 14.5651C14.3323 14.5651 14.5472 14.1853 14.2859 13.7412C14.1526 13.5152 14.0141 13.2919 13.8845 13.0643C13.3867 12.1893 13.0822 11.251 13.06 10.2422C13.0327 9.01424 13.0521 7.78521 13.0332 6.55724C13.0269 6.14581 13.0095 5.72542 12.9226 5.32558C12.1534 1.7781 8.20505 0.0306991 5.09692 1.88241C3.47806 2.84698 2.59935 4.31201 2.5256 6.20534C2.47977 7.39275 2.50874 8.58332 2.51138 9.77231C2.51401 11.0366 2.1974 12.2103 1.53416 13.2887C1.4209 13.4731 1.3029 13.6554 1.20333 13.8476C1.0495 14.1442 1.21123 14.4766 1.53838 14.5488C1.62056 14.5667 1.70801 14.5657 1.79282 14.5657C3.7836 14.5667 5.77386 14.5662 7.76464 14.5662V14.5657Z" fill="#3D3D3D"/>
<path d="M7.84474 18.8128C6.68841 18.7817 5.73753 18.4467 5.00739 17.6127C4.92099 17.5137 4.84829 17.382 4.82353 17.2545C4.7719 16.9906 4.90571 16.7662 5.13645 16.6582C5.36666 16.5507 5.64007 16.5934 5.81181 16.8109C6.53458 17.7223 7.99435 17.864 8.94839 17.4147C9.25709 17.2693 9.50838 17.058 9.73648 16.8067C10.0267 16.487 10.5161 16.5554 10.6837 16.9342C10.7901 17.1739 10.7332 17.3925 10.5646 17.5901C10.012 18.2359 9.30187 18.5984 8.47532 18.7443C8.24353 18.7854 8.00646 18.7959 7.84526 18.8128H7.84474Z" fill="#3D3D3D"/>
</svg>
