<svg  viewBox="0 0 20 15" fill="none" xmlns="http://www.w3.org/2000/svg">
<path d="M19.585 13.3061C19.4556 13.5356 19.3574 13.7919 19.1893 13.9884C18.9243 14.2979 18.5434 14.3707 18.1477 14.3707C14.9799 14.3697 11.8116 14.3707 8.64373 14.3707C6.23432 14.3707 3.82491 14.3707 1.41503 14.3707C0.967068 14.3707 0.575163 14.2418 0.285306 13.8786C0.0998929 13.6468 0.00263506 13.3828 0.00119776 13.0857C-0.000718654 12.7096 0.000239552 12.3335 0.000239552 11.9574C0.000239552 8.42598 0.000239552 4.89451 0.000239552 1.36305C0.000239552 0.709073 0.360525 0.215597 0.961798 0.0570137C1.10745 0.0186855 1.26363 0.0043107 1.41503 0.0043107C6.99897 0.00191519 12.5829 0.00383324 18.1668 4.15932e-07C18.8956 -0.000478687 19.4173 0.412985 19.5539 1.01905C19.5577 1.0363 19.5745 1.05019 19.585 1.066V13.3071V13.3061ZM5.20617 13.7311C5.26797 13.7354 5.31157 13.7407 5.35565 13.7407C9.64553 13.7407 13.9359 13.7407 18.2258 13.7421C18.5439 13.7421 18.7887 13.6257 18.9109 13.3262C18.9598 13.2069 18.9703 13.0651 18.9703 12.9339C18.9732 9.10295 18.9727 5.27157 18.9727 1.44066C18.9727 0.882508 18.725 0.630977 18.1716 0.630498C13.9196 0.630019 9.66805 0.630498 5.41601 0.630498C5.34846 0.630498 5.28091 0.636727 5.20617 0.640081V13.7311ZM4.56513 13.7411V0.630018H4.36534C3.38366 0.630018 2.40246 0.629539 1.42078 0.630018C0.854958 0.630498 0.611095 0.878194 0.611095 1.45072C0.611095 5.27444 0.611095 9.09864 0.611095 12.9224C0.611095 13.4925 0.856396 13.7397 1.42365 13.7402C2.39863 13.7411 3.37408 13.7402 4.34905 13.7402C4.41756 13.7402 4.4856 13.7402 4.56513 13.7402V13.7411Z" fill="currentColor"/>
<path d="M14.8807 6.85989C14.8131 7.51243 14.7508 8.11945 14.6881 8.72648C14.6833 8.77055 14.6838 8.81607 14.6728 8.85871C14.6282 9.02927 14.5027 9.1179 14.3355 9.10161C14.1745 9.08628 14.0629 8.96746 14.0739 8.78492C14.0954 8.42943 14.1299 8.07442 14.1654 7.71988C14.2358 7.01081 14.3129 6.30174 14.3819 5.59266C14.3987 5.41923 14.4476 5.27789 14.6354 5.23621C14.8107 5.1974 14.9343 5.2822 15.0211 5.49828C15.3291 6.26484 15.6348 7.03236 15.9414 7.79941C15.9577 7.84061 15.9759 7.88086 16.0042 7.94745C16.0425 7.86457 16.0741 7.80325 16.0995 7.73905C16.3966 6.99548 16.6893 6.24999 16.9945 5.50978C17.0366 5.40725 17.1243 5.29466 17.2206 5.24867C17.4041 5.16051 17.6034 5.30185 17.6269 5.52415C17.7093 6.30269 17.784 7.08171 17.8612 7.86073C17.8894 8.1458 17.9211 8.43039 17.9402 8.71593C17.9565 8.95452 17.8573 9.08772 17.6715 9.10353C17.4755 9.11982 17.3529 8.99381 17.3284 8.75714C17.2676 8.16209 17.2053 7.56705 17.1435 6.972C17.1411 6.94996 17.1349 6.9284 17.121 6.85846C16.9241 7.34762 16.7439 7.79318 16.5647 8.23923C16.4818 8.44572 16.4009 8.65269 16.319 8.85966C16.2634 8.99908 16.1781 9.10257 16.0133 9.10544C15.8389 9.10832 15.7507 9.001 15.6923 8.85439C15.4499 8.24641 15.207 7.63891 14.9631 7.03141C14.9449 6.98637 14.9214 6.94421 14.8807 6.85989Z" fill="currentColor"/>
<path d="M12.6854 7.78241C12.8728 8.03202 13.0496 8.26439 13.222 8.49963C13.2704 8.56575 13.3202 8.63522 13.3485 8.71091C13.3979 8.84506 13.3643 8.98784 13.2393 9.04102C13.1391 9.08366 13.0021 9.06401 12.8881 9.04006C12.8325 9.02856 12.787 8.94855 12.7448 8.89345C12.4986 8.5691 12.2595 8.23852 12.0056 7.92039C11.9562 7.85859 11.8552 7.81164 11.7742 7.80637C11.5538 7.79104 11.3315 7.8011 11.0867 7.8011C11.0867 8.12305 11.0895 8.42681 11.0857 8.73008C11.0828 8.96388 10.9755 9.09611 10.7901 9.10282C10.6296 9.10857 10.5204 9.03335 10.483 8.87621C10.4638 8.79716 10.4619 8.71235 10.4619 8.62995C10.4605 7.65545 10.461 6.68096 10.4614 5.70646C10.4614 5.30689 10.5429 5.22496 10.942 5.22592C11.4513 5.22688 11.9615 5.2173 12.4703 5.23598C13.0965 5.25898 13.6101 5.73234 13.6863 6.3269C13.7673 6.95836 13.4209 7.51891 12.8181 7.73259C12.7822 7.74505 12.7472 7.75942 12.6859 7.78241H12.6854ZM11.101 5.84588V7.18401C11.5595 7.18401 12.0046 7.19647 12.4488 7.18018C12.8071 7.16725 13.0817 6.8611 13.0821 6.51423C13.0821 6.17455 12.8114 5.86217 12.4689 5.84971C12.0185 5.83342 11.5667 5.84588 11.101 5.84588Z" fill="currentColor"/>
<path d="M8.15313 9.10873C7.28308 9.11112 6.48585 8.49308 6.27457 7.65225C6.05514 6.77885 6.44369 5.89491 7.23517 5.46563C8.06162 5.01719 9.09169 5.21985 9.66517 5.94186C9.77441 6.07936 9.81992 6.22309 9.70302 6.37545C9.58085 6.53499 9.39783 6.52301 9.22152 6.37688C9.03324 6.2207 8.84735 6.04008 8.62792 5.94713C8.05731 5.70566 7.43064 5.91024 7.07275 6.4109C6.73115 6.88856 6.76421 7.55643 7.15228 8.02116C7.53317 8.47727 8.1881 8.6277 8.72805 8.35653C8.89957 8.27029 9.04426 8.12513 9.18847 7.99242C9.37436 7.82138 9.52767 7.79263 9.67188 7.9263C9.80938 8.05374 9.80124 8.23628 9.64505 8.41738C9.25267 8.87253 8.75632 9.10537 8.15408 9.10873H8.15313Z" fill="currentColor"/>
<path d="M2.60416 7.81261C2.29226 7.81261 1.98037 7.81549 1.66847 7.81118C1.52857 7.80926 1.38676 7.76998 1.34604 7.62385C1.32016 7.53186 1.32687 7.39819 1.37861 7.32633C1.4318 7.25207 1.55684 7.19266 1.6517 7.19074C2.28172 7.17924 2.91222 7.1802 3.54272 7.18787C3.75305 7.19026 3.88624 7.32729 3.88528 7.49928C3.8848 7.67799 3.74299 7.80639 3.52116 7.81118C3.21549 7.81789 2.90983 7.81261 2.60416 7.81261Z" fill="currentColor"/>
<path d="M2.59075 1.92465C2.29131 1.92465 1.99235 1.92704 1.69291 1.92369C1.45671 1.92129 1.30963 1.80056 1.30579 1.61562C1.30148 1.43117 1.44569 1.30229 1.68333 1.30038C2.29466 1.29559 2.90552 1.29559 3.51685 1.30038C3.74634 1.30229 3.88193 1.42494 3.8848 1.60509C3.88768 1.79194 3.74155 1.91986 3.50727 1.92273C3.2016 1.92704 2.89593 1.92369 2.59075 1.92369V1.92465Z" fill="currentColor"/>
<path d="M2.60033 6.50026C2.28221 6.50026 1.9636 6.50409 1.64548 6.49834C1.50414 6.49595 1.36377 6.4466 1.33742 6.29472C1.32065 6.19555 1.34652 6.06619 1.40305 5.98474C1.44713 5.92102 1.56738 5.88221 1.65458 5.88078C2.2846 5.87215 2.9151 5.87263 3.54512 5.87886C3.75065 5.88078 3.88768 6.02163 3.8848 6.19411C3.88193 6.36084 3.7564 6.48972 3.55518 6.49642C3.23706 6.50696 2.91893 6.4993 2.60033 6.4993V6.50026Z" fill="currentColor"/>
<path d="M2.61566 8.50007C2.91462 8.50007 3.21406 8.49671 3.51302 8.50103C3.74394 8.50438 3.87857 8.61697 3.88432 8.79855C3.89007 8.98636 3.74299 9.11668 3.5111 9.11764C2.90024 9.12003 2.28891 9.12003 1.67805 9.11764C1.45575 9.11668 1.31298 8.99546 1.30627 8.81532C1.29956 8.62751 1.4409 8.50391 1.67997 8.50055C1.99187 8.49624 2.30376 8.49959 2.61566 8.49959V8.50007Z" fill="currentColor"/>
<path d="M2.59458 5.18672C2.28268 5.18672 1.97079 5.18959 1.65889 5.18576C1.44521 5.18288 1.31202 5.06694 1.30579 4.89015C1.29956 4.71049 1.44569 4.57395 1.66033 4.57299C2.28412 4.57011 2.90791 4.57011 3.5317 4.57299C3.74059 4.57395 3.87666 4.69564 3.88288 4.87243C3.88959 5.05592 3.75113 5.18288 3.53026 5.18576C3.21837 5.18959 2.90647 5.18672 2.59458 5.18672Z" fill="currentColor"/>
<path d="M2.59697 10.4221C2.28508 10.4221 1.97318 10.4244 1.66129 10.4211C1.44377 10.4192 1.30004 10.2884 1.30627 10.1068C1.3125 9.92953 1.44713 9.8112 1.65841 9.81024C2.2822 9.80784 2.90599 9.80784 3.52979 9.81024C3.74921 9.8112 3.88863 9.93912 3.88336 10.1231C3.87857 10.2999 3.74203 10.4192 3.53266 10.4211C3.22076 10.424 2.90887 10.4221 2.59697 10.4221Z" fill="currentColor"/>
<path d="M2.25586 12.3848C2.05272 12.3848 1.8491 12.3901 1.64644 12.3834C1.43707 12.3762 1.30388 12.2492 1.30628 12.0748C1.30867 11.9019 1.44761 11.7701 1.65219 11.7673C2.06469 11.762 2.47768 11.7615 2.89067 11.7673C3.09812 11.7706 3.22844 11.9014 3.22748 12.0801C3.22604 12.2583 3.09908 12.3762 2.88492 12.3829C2.67555 12.3896 2.4657 12.3843 2.25634 12.3843L2.25586 12.3848Z" fill="currentColor"/>
<path d="M2.29466 2.61415C2.4978 2.61415 2.70141 2.60888 2.90407 2.61559C3.10194 2.62182 3.22507 2.74303 3.22603 2.91694C3.22699 3.09086 3.10242 3.22357 2.90839 3.22644C2.48294 3.23315 2.0575 3.23267 1.63206 3.22644C1.44233 3.22357 1.30723 3.08702 1.30627 2.92078C1.30531 2.75117 1.43467 2.62182 1.62823 2.61559C1.85005 2.60888 2.07283 2.61415 2.29466 2.61367V2.61415Z" fill="currentColor"/>
</svg>
