<svg  viewBox="0 0 21 21" fill="none" xmlns="http://www.w3.org/2000/svg">
<path d="M20.0993 10.7183C19.837 11.5157 19.2599 11.7466 18.4625 11.7361C16.3849 11.7098 14.3021 11.7256 12.2245 11.7256C11.5845 11.7256 11.1018 11.3793 10.9392 10.8127C10.892 10.6553 10.8867 10.4927 10.8867 10.3301C10.8867 7.40258 10.8867 4.46987 10.8867 1.5424C10.8867 0.645274 11.1123 0.314754 11.936 0.00521851C14.3021 0.00521851 16.6735 0.00521851 19.0396 0.00521851C19.4907 0.0524357 19.8108 0.278029 20.0101 0.692491C20.0678 0.813158 20.0626 0.944317 20.0993 1.06498C20.0993 4.281 20.0993 7.49702 20.0993 10.7183Z" fill="currentColor"/>
<path d="M8.16919 0C8.32658 0.0682026 8.49971 0.0996808 8.64661 0.204608C9.01386 0.461679 9.21322 0.818432 9.21846 1.26437C9.22371 2.65466 9.22896 4.05019 9.21846 5.44047C9.21322 6.16972 8.67284 6.6996 7.93835 6.6996C5.72439 6.70484 3.50518 6.70484 1.29122 6.6996C0.535742 6.6996 0.00585938 6.14873 0.00585938 5.38801C0.00585938 4.0397 0.00585938 2.69663 0.00585938 1.34831C0.00585938 0.666287 0.325887 0.236086 0.981682 0.0367245C0.997421 0.0314781 1.01316 0.0157391 1.02365 0.00524636C3.4055 0 5.78735 0 8.16919 0Z" fill="currentColor"/>
<path d="M20.0994 19.0758C20.0416 19.1335 20.0469 19.2174 20.0154 19.2909C19.8318 19.763 19.3754 20.0935 18.8665 20.0935C16.6158 20.0988 14.3703 20.0988 12.1196 20.0935C11.4376 20.0935 10.892 19.5532 10.8867 18.8502C10.871 17.4441 10.871 16.0381 10.8867 14.6321C10.8972 13.9238 11.4324 13.3992 12.1459 13.3939C14.3756 13.3835 16.6053 13.3835 18.835 13.3939C19.4593 13.3939 19.921 13.7874 20.0679 14.396C20.0731 14.4117 20.0889 14.4222 20.0994 14.438C20.0994 15.9909 20.0994 17.5333 20.0994 19.0758Z" fill="currentColor"/>
<path d="M0 14.2439C0 12.7382 0 11.2325 0 9.732C0 8.89783 0.524636 8.37319 1.35881 8.37319C3.52555 8.37319 5.6923 8.37319 7.8538 8.37319C8.68272 8.37319 9.2126 8.90307 9.2126 9.73724C9.2126 12.7382 9.2126 15.7443 9.2126 18.7452C9.2126 19.5794 8.68272 20.0988 7.84855 20.0988C5.68181 20.0988 3.51506 20.0988 1.35356 20.0988C0.524636 20.0988 0 19.5742 0 18.7347C0 17.2395 0 15.7391 0 14.2439Z" fill="currentColor"/>
<path d="M11.7305 5.84969C11.7305 4.36497 11.7305 2.88025 11.7305 1.39553C11.7305 0.965326 11.8616 0.834167 12.2918 0.834167C14.4271 0.834167 16.5571 0.834167 18.6924 0.834167C19.1278 0.834167 19.2695 0.975819 19.2695 1.40602C19.2695 4.37546 19.2695 7.3449 19.2695 10.3143C19.2695 10.7445 19.1383 10.8809 18.7081 10.8809C16.5624 10.8809 14.4166 10.8809 12.2708 10.8809C11.8616 10.8809 11.7305 10.7498 11.7305 10.3406C11.7305 8.84536 11.7305 7.35014 11.7305 5.84969Z" fill="#1DB2FF"/>
<path d="M4.61136 5.86018C3.53061 5.86018 2.44986 5.86018 1.37436 5.86018C0.97039 5.86018 0.833984 5.72377 0.833984 5.31456C0.833984 4.00821 0.833984 2.69662 0.833984 1.39028C0.833984 0.981066 0.980882 0.834167 1.3901 0.834167C3.53586 0.834167 5.68162 0.834167 7.82738 0.834167C8.23135 0.834167 8.373 0.970573 8.373 1.37454C8.373 2.69138 8.373 4.00297 8.373 5.3198C8.373 5.72902 8.24184 5.86018 7.83263 5.86018C6.75712 5.86018 5.68687 5.86018 4.61136 5.86018Z" fill="#1DB2FF"/>
<path d="M15.5072 14.2386C16.5722 14.2386 17.6425 14.2386 18.7075 14.2386C19.1272 14.2386 19.2636 14.3698 19.2636 14.7842C19.2636 16.0906 19.2636 17.4022 19.2636 18.7085C19.2636 19.1125 19.1167 19.2594 18.7023 19.2594C16.5618 19.2594 14.4212 19.2594 12.286 19.2594C11.8558 19.2594 11.7246 19.1282 11.7246 18.6928C11.7246 17.3917 11.7246 16.0906 11.7246 14.7895C11.7246 14.354 11.8505 14.2334 12.286 14.2334C13.3615 14.2386 14.437 14.2386 15.5072 14.2386Z" fill="#1DB2FF"/>
<path d="M8.373 14.2544C8.373 15.7338 8.373 17.2133 8.373 18.6875C8.373 19.1335 8.24709 19.2646 7.80639 19.2646C5.67113 19.2646 3.54111 19.2646 1.40584 19.2646C0.975636 19.2646 0.833984 19.123 0.833984 18.6875C0.833984 15.7181 0.833984 12.7487 0.833984 9.77923C0.833984 9.34902 0.965143 9.21786 1.39534 9.21786C3.53586 9.21786 5.67637 9.21786 7.81164 9.21786C8.24184 9.21786 8.36775 9.34378 8.36775 9.77923C8.373 11.2692 8.373 12.7592 8.373 14.2544Z" fill="#1DB2FF"/>
</svg>
