<svg  viewBox="0 0 19 19" fill="none" xmlns="http://www.w3.org/2000/svg">
<path d="M10.4426 19C10.2949 18.941 10.1417 18.8939 10.0009 18.8215C9.45065 18.538 9.12694 17.9411 9.18395 17.3344C9.24145 16.7256 9.66628 16.2037 10.2562 16.0163C10.8406 15.8304 11.492 16.0173 11.8826 16.4986C11.9639 16.5987 12.0442 16.629 12.1637 16.625C12.5717 16.6111 12.9816 16.624 13.3876 16.5883C13.6965 16.5611 13.9319 16.3682 14.0608 16.0906C14.2348 15.7164 14.3776 15.3272 14.5322 14.944C14.5382 14.9297 14.5293 14.9098 14.5322 14.9376C14.3161 15.0496 14.101 15.2073 13.8605 15.2767C13.4045 15.408 12.999 15.2608 12.6872 14.9093C12.3694 14.5514 12.301 14.1321 12.4651 13.681C12.8255 12.6895 13.1879 11.6991 13.5497 10.7081C13.7485 10.1633 13.9409 9.61607 14.1491 9.07525C14.3543 8.54235 14.8336 8.26128 15.4156 8.31184C15.9173 8.35546 16.3451 8.75601 16.4522 9.28345C16.4621 9.33153 16.4522 9.38457 16.468 9.43018C16.4968 9.51643 16.5369 9.59922 16.5944 9.67407C17.1437 6.8693 15.5351 3.11326 11.7027 1.985C7.86336 0.854768 4.26098 3.1311 3.15702 6.36566C3.23733 6.36566 3.30871 6.36566 3.3796 6.36566C5.53696 6.36566 7.69382 6.36813 9.85119 6.36467C10.6676 6.36318 11.3012 6.68738 11.7275 7.38733C11.9213 7.70508 12.0046 8.05655 12.0041 8.42982C12.0021 9.98241 11.9813 11.5355 12.011 13.0871C12.0314 14.1628 11.2298 15.2499 9.85862 15.2395C9.44371 15.236 9.02879 15.239 8.58364 15.239C8.58364 15.3396 8.58364 15.4293 8.58364 15.5191C8.58364 15.9028 8.58165 16.2859 8.58364 16.6696C8.58562 17.0226 8.4255 17.2794 8.10725 17.4192C7.79594 17.5555 7.50347 17.497 7.24322 17.2744C6.49022 16.6305 5.73822 15.986 4.97977 15.3485C4.9074 15.2881 4.79735 15.2509 4.70168 15.244C4.49199 15.2286 4.28032 15.242 4.06964 15.238C3.85697 15.2335 3.72313 15.1235 3.71867 14.9584C3.71421 14.7864 3.85499 14.6704 4.07608 14.6674C4.24363 14.665 4.41317 14.6843 4.57775 14.6635C4.92772 14.6189 5.18401 14.7572 5.44079 14.9857C6.13826 15.6078 6.85805 16.2051 7.56841 16.8129C7.66061 16.8917 7.77066 16.9839 7.87873 16.8967C7.95556 16.8347 8.01604 16.7073 8.01902 16.6072C8.0329 16.0941 8.02496 15.5805 8.02546 15.067C8.02546 14.7567 8.11271 14.6674 8.41906 14.6669C8.90883 14.6659 9.3986 14.6694 9.88836 14.6659C10.8218 14.6595 11.4444 14.0339 11.4454 13.0995C11.4474 11.5657 11.4395 10.0315 11.4484 8.49774C11.4543 7.50878 10.6731 6.91789 9.86903 6.92483C7.29081 6.94614 4.71159 6.93226 2.13336 6.93325C1.2029 6.93325 0.580282 7.54794 0.578299 8.47394C0.575325 10.0265 0.575325 11.5791 0.578299 13.1317C0.580282 14.0473 1.19844 14.659 2.12048 14.6669C2.30637 14.6684 2.49276 14.66 2.67816 14.6719C2.84075 14.6823 2.94733 14.7829 2.95229 14.9455C2.95675 15.0982 2.86653 15.2157 2.71038 15.2256C2.07388 15.2668 1.44233 15.2638 0.891593 14.8682C0.300698 14.4439 0.00822466 13.8614 0.00574607 13.1401C0.000293181 11.5751 -0.00466399 10.0102 0.00772894 8.44569C0.014669 7.57669 0.426114 6.94218 1.20637 6.54659C1.26784 6.51536 1.33179 6.44448 1.35013 6.37954C1.83593 4.6366 2.77532 3.18464 4.15837 2.0202C5.36891 1.002 6.7589 0.360043 8.32289 0.11268C12.3313 -0.521343 16.127 1.56315 17.7341 5.2845C18.3245 6.65069 18.5183 8.08084 18.3716 9.56155C18.2888 10.3973 18.0543 11.1939 17.801 11.9876C17.7351 12.1938 17.5834 12.2806 17.4272 12.2265C17.2825 12.176 17.2061 12.0426 17.2458 11.8875C17.278 11.7625 17.3281 11.6421 17.3648 11.5181C17.451 11.2267 17.3717 10.9714 17.1467 10.782C16.8874 10.5644 16.6058 10.3725 16.3109 10.1524C15.8052 11.538 15.308 12.9022 14.8044 14.2828C15.1618 14.3051 15.4949 14.3398 15.828 14.3422C16.1488 14.3447 16.3837 14.1831 16.5057 13.8837C16.6009 13.6497 16.6802 13.4088 16.7689 13.1723C16.8467 12.9651 16.9831 12.8848 17.1472 12.9453C17.3162 13.0073 17.3732 13.1525 17.3008 13.3587C17.2146 13.6031 17.1467 13.8584 17.0257 14.0845C16.9147 14.2912 16.7436 14.4662 16.5989 14.655C16.53 14.7448 16.4368 14.8241 16.3947 14.9247C16.1646 15.4705 15.949 16.0222 15.7254 16.571C15.2679 17.6953 14.327 18.3283 13.115 18.3293C12.7804 18.3293 12.4453 18.3273 12.1107 18.3318C12.0542 18.3328 11.9734 18.3442 11.9461 18.3813C11.6992 18.7189 11.3527 18.8919 10.9631 19H10.4426ZM1.95639 6.36566C2.10907 6.36566 2.24441 6.35772 2.37874 6.36813C2.50317 6.37755 2.56018 6.3369 2.6033 6.21347C3.86044 2.64183 7.45935 0.570227 11.1827 1.26919C14.619 1.91461 17.2304 5.00293 17.2755 8.49476C17.2815 8.95578 17.2091 9.41729 17.1794 9.8788C17.1744 9.95713 17.1724 10.0662 17.2185 10.1113C17.3474 10.2377 17.5016 10.3383 17.6493 10.4514C18.6179 6.29824 16.1294 1.8809 11.67 0.793795C7.14209 -0.309671 3.04747 2.53228 1.95639 6.36566ZM15.2773 8.86556C15.0042 8.86258 14.7756 9.00832 14.677 9.278C14.1109 10.8177 13.5492 12.3594 12.9881 13.9011C12.9212 14.0845 12.935 14.2674 13.0357 14.4369C13.1675 14.6595 13.3698 14.7681 13.6246 14.7512C13.9136 14.7319 14.101 14.5673 14.1991 14.2976C14.4966 13.4807 14.795 12.6637 15.0924 11.8468C15.3457 11.1513 15.6015 10.4573 15.8513 9.76033C16.0154 9.30229 15.7349 8.87052 15.2773 8.86605V8.86556ZM11.6744 17.4777C11.6754 16.9403 11.2501 16.512 10.7147 16.511C10.1823 16.51 9.74461 16.9418 9.74213 17.4717C9.73965 17.9947 10.1833 18.4408 10.7088 18.4433C11.2367 18.4458 11.6739 18.0086 11.6749 17.4781L11.6744 17.4777ZM12.2341 17.7567C12.6158 17.7567 12.9881 17.7835 13.3549 17.7513C14.2541 17.673 14.8639 17.1891 15.2029 16.3598C15.3408 16.0232 15.4756 15.6851 15.6114 15.3476C15.6659 15.2112 15.718 15.0744 15.7785 14.9198C15.6179 14.9054 15.4761 14.8989 15.3368 14.8781C15.2094 14.8593 15.1524 14.9093 15.1078 15.0273C14.9685 15.3966 14.8173 15.7615 14.6691 16.1273C14.3825 16.8332 13.8675 17.1802 13.1061 17.1802C12.8171 17.1802 12.5276 17.1802 12.2346 17.1802V17.7567H12.2341Z" fill="currentColor"/>
<path d="M6.01788 10.8682C7.25122 10.8682 8.48506 10.8682 9.71841 10.8682C9.78037 10.8682 9.84283 10.8662 9.9043 10.8716C10.0605 10.886 10.1809 11.0084 10.1675 11.1517C10.1536 11.3029 10.0694 11.403 9.91124 11.4244C9.86266 11.4308 9.8121 11.4268 9.76253 11.4268C7.25816 11.4268 4.75429 11.4268 2.24993 11.4268C2.19441 11.4268 2.13592 11.4348 2.08287 11.4219C1.93317 11.3862 1.84344 11.293 1.85237 11.1319C1.86079 10.9822 1.94556 10.8934 2.09428 10.8736C2.1612 10.8647 2.2306 10.8682 2.29851 10.8682C3.5383 10.8682 4.77809 10.8682 6.01788 10.8682Z" fill="currentColor"/>
<path d="M5.99887 10.0652C4.76552 10.0652 3.53168 10.0652 2.29834 10.0652C2.23042 10.0652 2.16152 10.0672 2.0941 10.0588C1.95332 10.0414 1.87004 9.95767 1.85418 9.81788C1.83732 9.66867 1.9092 9.56507 2.04998 9.52095C2.11294 9.50112 2.18432 9.50261 2.25174 9.50261C4.7561 9.50161 7.25997 9.50161 9.76433 9.50261C9.8377 9.50261 9.91503 9.50558 9.98295 9.52888C10.1148 9.57448 10.1817 9.68057 10.1639 9.81788C10.1465 9.95172 10.0667 10.0444 9.92197 10.0588C9.85456 10.0657 9.78565 10.0647 9.71774 10.0647C8.47795 10.0647 7.23816 10.0647 5.99887 10.0647V10.0652Z" fill="currentColor"/>
<path d="M5.36353 12.7891C4.33541 12.7891 3.30679 12.7891 2.27868 12.7881C2.19887 12.7881 2.10022 12.8005 2.0442 12.7603C1.9634 12.7023 1.86376 12.6002 1.86475 12.5184C1.86624 12.4262 1.95696 12.3211 2.03528 12.2497C2.07989 12.2091 2.17656 12.2175 2.24943 12.2175C4.33095 12.216 6.41246 12.216 8.49398 12.2175C8.56735 12.2175 8.66351 12.2091 8.70862 12.2492C8.78794 12.3201 8.88163 12.4247 8.88312 12.5169C8.8846 12.5987 8.78298 12.7008 8.70168 12.7593C8.64567 12.7995 8.54702 12.7871 8.46721 12.7876C7.43265 12.7891 6.39809 12.7886 5.36353 12.7886V12.7891Z" fill="currentColor"/>
</svg>
