<svg  viewBox="0 0 21 16" fill="none" xmlns="http://www.w3.org/2000/svg">
<path d="M10.0408 0.000117921C7.11555 0.000117921 4.18986 -0.000353864 1.26464 0.000589907C0.625708 0.000589907 0.21611 0.270037 0.0523663 0.788167C-0.158094 1.45353 0.28878 2.14437 0.981981 2.22317C1.07683 2.23402 1.1731 2.23827 1.26842 2.23874C7.11036 2.23921 12.9523 2.23969 18.7942 2.23874C19.4511 2.23874 19.8602 1.9693 20.023 1.43842C20.2241 0.78392 19.781 0.0982701 19.1024 0.0185214C18.9731 0.00342109 18.8419 0.00153388 18.7117 0.00153388C15.8214 0.000590109 12.9306 0.00106189 10.0403 0.00106189L10.0408 0.000117921Z" fill="#3D3D3D"/>
<path d="M13.3503 6.69202C11.5396 6.69202 9.72902 6.69014 7.9184 6.69297C7.29315 6.69391 6.88497 6.98034 6.73019 7.51122C6.54191 8.15581 6.98359 8.83061 7.6499 8.91224C7.75324 8.92498 7.858 8.93017 7.96228 8.93017C11.575 8.93112 15.1873 8.93159 18.8001 8.93017C19.4631 8.93017 19.8774 8.64657 20.0317 8.09824C20.2101 7.46356 19.7726 6.79489 19.121 6.71231C18.9921 6.6958 18.8605 6.69297 18.7302 6.69297C16.9371 6.69155 15.1439 6.69202 13.3507 6.69202H13.3503Z" fill="#3D3D3D"/>
<path d="M10.0408 13.0001C7.11555 13.0001 4.18986 12.9996 1.26464 13.0006C0.625708 13.0006 0.21611 13.27 0.0523663 13.7882C-0.158094 14.4535 0.28878 15.1444 0.981981 15.2232C1.07683 15.234 1.1731 15.2383 1.26842 15.2387C7.11036 15.2392 12.9523 15.2397 18.7942 15.2387C19.4511 15.2387 19.8602 14.9693 20.023 14.4384C20.2241 13.7839 19.781 13.0983 19.1024 13.0185C18.9731 13.0034 18.8419 13.0015 18.7117 13.0015C15.8214 13.0006 12.9306 13.0011 10.0403 13.0011L10.0408 13.0001Z" fill="#3D3D3D"/>
</svg>
