
<svg width="66" height="66" viewBox="0 0 66 66" fill="none" xmlns="http://www.w3.org/2000/svg">
<g opacity="0.5">
<path d="M6.6028 59.6345C6.44562 59.5559 6.2899 59.4759 6.13272 59.3987C5.12417 58.9068 4.55223 57.7469 4.7909 56.6758C5.04122 55.5494 6.01775 54.7475 7.16892 54.7358C8.01884 54.7271 8.8673 54.7344 9.78271 54.7344C9.78271 53.8786 9.77544 53.068 9.78708 52.2574C9.78999 52.0435 9.80745 51.815 9.8875 51.6214C10.0447 51.2387 10.3736 51.0815 10.7723 51.1557C11.2031 51.2358 11.4301 51.5428 11.4447 51.9649C11.468 52.6532 11.4563 53.3445 11.4593 54.0344C11.4593 54.2483 11.4593 54.4622 11.4593 54.7038H13.0514C13.0514 54.046 13.0514 53.3824 13.0514 52.7202C13.0514 52.2487 13.0427 51.7757 13.0543 51.3041C13.0718 50.6434 13.3628 50.3451 14.0294 50.3334C14.8458 50.3189 15.6637 50.3291 16.4802 50.3291C19.8391 50.3291 23.1966 50.3291 26.5555 50.3291C27.5829 50.3291 27.7983 50.5474 27.7998 51.5807C27.8012 52.611 27.7998 53.6414 27.7998 54.7024H29.3468V31.3413H11.4593C11.4593 31.5785 11.4593 31.807 11.4593 32.0355C11.4593 37.2267 11.4593 42.4193 11.4593 47.6105C11.4593 47.8099 11.468 48.0107 11.4462 48.2086C11.3909 48.7064 11.0328 49.0513 10.6021 49.0367C10.1684 49.0222 9.83073 48.6671 9.78853 48.1679C9.77688 48.0238 9.78417 47.8783 9.78417 47.7328C9.78417 42.3233 9.78417 36.9138 9.78417 31.5043C9.78417 30.113 10.2455 29.656 11.647 29.6546C12.0952 29.6546 12.5449 29.6546 13.0514 29.6546C13.0514 28.6868 13.0499 27.7844 13.0514 26.8807C13.0543 26.0002 13.309 25.7339 14.1764 25.7339C18.3328 25.731 22.4907 25.731 26.6472 25.7339C27.5524 25.7339 27.794 25.9842 27.7969 26.9098C27.8012 27.7975 27.7969 28.6838 27.7969 29.6546C28.3266 29.6546 28.8098 29.6531 29.293 29.6546C30.5824 29.6589 31.0641 30.1363 31.0641 31.4301C31.0656 38.9454 31.0641 46.4608 31.0641 53.9762C31.0641 54.2076 31.0641 54.4404 31.0641 54.7024H34.3648V54.0475C34.3648 46.5874 34.3648 39.1259 34.3648 31.6658C34.3648 31.4664 34.3604 31.2656 34.3677 31.0662C34.3983 30.2207 34.9178 29.6953 35.7736 29.6618C36.3528 29.6385 36.9335 29.64 37.5142 29.6284C37.5287 29.6284 37.5433 29.6094 37.632 29.5483C37.632 28.7013 37.632 27.8005 37.632 26.8996C37.6335 25.9624 37.8518 25.7353 38.773 25.7353C42.912 25.7339 47.051 25.7339 51.19 25.7353C52.1097 25.7353 52.3441 25.9769 52.3455 26.8967C52.3455 27.7859 52.3455 28.6737 52.3455 29.656C52.8694 29.656 53.3686 29.6546 53.8678 29.656C55.1383 29.6618 55.6142 30.1334 55.6142 31.3922C55.6142 38.9251 55.6142 46.4593 55.6142 53.9922C55.6142 54.209 55.6142 54.4273 55.6142 54.7344C56.2007 54.7344 56.777 54.7795 57.3431 54.7256C58.8625 54.5816 59.9438 55.1404 60.5216 56.5841V57.7819C60.1723 58.6667 59.5552 59.2852 58.6689 59.6345H6.59697H6.6028ZM36.0501 31.3355V54.7009H37.6379C37.6379 53.6007 37.6364 52.5339 37.6379 51.4657C37.6393 50.5707 37.8707 50.3349 38.7599 50.3305C39.9213 50.3262 41.0841 50.3305 42.2455 50.3305C45.2042 50.3305 48.1643 50.3305 51.123 50.3305C52.1214 50.3305 52.3499 50.5576 52.3499 51.5355C52.3499 52.4611 52.3484 53.3867 52.3528 54.3138C52.3528 54.4506 52.3804 54.5859 52.3921 54.6951H53.9507V31.334H36.0501V31.3355ZM32.6955 56.3644C24.3623 56.3644 16.029 56.3644 7.69575 56.3644C7.53275 56.3644 7.3683 56.3542 7.2053 56.3702C6.73232 56.4167 6.39759 56.7471 6.38886 57.1677C6.37867 57.6072 6.7265 57.9536 7.22859 57.9987C7.35521 58.0103 7.48328 58.0031 7.60989 58.0031C24.2939 58.0031 40.9779 58.0031 57.6619 58.0031C58.4768 58.0031 58.8974 57.7178 58.8872 57.1721C58.8785 56.6307 58.4696 56.3658 57.6386 56.3658C49.3242 56.3658 41.0084 56.3658 32.6941 56.3658L32.6955 56.3644ZM39.2984 54.7067H50.6777V52.0333H39.2984V54.7067ZM26.1014 52.0245H14.7629V54.698H26.1014V52.0245ZM39.3086 27.3973V29.6094H50.669V27.3973H39.3086ZM26.0912 27.425H14.776V29.6254H26.0912V27.425Z" fill="white" stroke="white" stroke-width="0.1"/>
<path d="M32.5897 20.7391C27.253 20.7391 21.9148 20.7391 16.5781 20.7391C14.6017 20.7391 13.289 19.4584 13.2817 17.4864C13.2686 14.0372 13.2701 10.5881 13.2817 7.13892C13.2876 5.13347 14.5901 3.85859 16.6043 3.85859C24.1196 3.85859 31.635 3.85859 39.1518 3.8615C39.3832 3.8615 39.6947 3.82803 39.8271 3.9561C40.0454 4.17004 40.2957 4.52223 40.2593 4.77837C40.2244 5.03596 39.8795 5.28046 39.6234 5.46529C39.5026 5.55261 39.2712 5.48712 39.0892 5.48712C31.6641 5.48712 24.239 5.48712 16.8139 5.48712C15.4342 5.48712 14.9598 5.96447 14.9598 7.35577C14.9598 10.6783 14.9583 13.9994 14.9598 17.3219C14.9598 18.5983 15.4662 19.1076 16.7324 19.1076C27.3345 19.1076 37.9366 19.1076 48.5373 19.1076C49.8034 19.1076 50.3143 18.5968 50.3143 17.3248C50.3157 13.9659 50.3172 10.6084 50.3143 7.24953C50.3143 5.98921 49.8005 5.48857 48.5184 5.48712C46.884 5.48712 45.2511 5.48712 43.6168 5.48712C42.9153 5.48712 42.5617 5.21788 42.5529 4.68523C42.5457 4.13365 42.9066 3.85859 43.6445 3.85859C45.3516 3.85859 47.0572 3.85568 48.7643 3.85859C50.617 3.8615 51.9632 5.10727 51.9821 6.96137C52.0199 10.5197 52.0199 14.078 51.9821 17.6348C51.9632 19.4875 50.6155 20.7361 48.7629 20.7376C43.3708 20.7391 37.9788 20.7376 32.5883 20.7376L32.5897 20.7391Z" fill="white" stroke="white" stroke-width="0.1"/>
<path d="M37.4439 12.3874C37.4439 11.766 37.4439 11.2857 37.4439 10.8069C37.4439 10.1535 37.4249 9.50001 37.4439 8.84802C37.457 8.35757 37.8252 8.00829 38.2705 8.01411C38.6969 8.01848 39.0578 8.34884 39.0666 8.81455C39.1073 10.8098 39.135 12.8051 39.1524 14.8018C39.1568 15.2792 38.94 15.6474 38.451 15.7842C37.9969 15.9108 37.6782 15.6779 37.4351 15.3301C36.6885 14.2604 35.9507 13.1835 35.207 12.1094C35.1081 11.9668 34.9989 11.8315 34.8024 11.5724C34.8024 12.7236 34.8083 13.7307 34.7981 14.7363C34.7952 14.9663 34.7762 15.2151 34.686 15.4218C34.5317 15.7769 34.1926 15.9704 33.8419 15.8336C33.5799 15.7318 33.382 15.4465 33.1812 15.2209C33.123 15.1554 33.1433 15.0114 33.1433 14.9022C33.1419 12.9419 33.1433 10.983 33.1404 9.02266C33.1404 8.56132 33.2816 8.19748 33.7633 8.06068C34.229 7.92824 34.5143 8.19312 34.7559 8.5424C35.517 9.647 36.2811 10.7501 37.0451 11.8533C37.1441 11.9945 37.2518 12.1298 37.4453 12.3859L37.4439 12.3874Z" fill="white" stroke="white" stroke-width="0.1"/>
<path d="M21.4996 13.6205C21.4996 14.0528 21.5112 14.485 21.4967 14.9172C21.4777 15.5125 21.1648 15.8574 20.6671 15.8617C20.165 15.8661 19.8318 15.5314 19.8274 14.9318C19.8143 12.9365 19.8128 10.9398 19.8274 8.94453C19.8318 8.31874 20.1636 8.01894 20.785 8.00729C21.3104 7.99711 21.8372 7.99274 22.364 8.00875C23.5123 8.04368 24.5267 8.83393 24.7741 9.86867C25.0419 10.9922 24.5296 12.056 23.4439 12.6338C23.3653 12.6746 23.2853 12.7124 23.1397 12.7837C23.652 13.376 24.157 13.9334 24.63 14.5141C24.9444 14.8998 24.8891 15.396 24.5456 15.6827C24.2211 15.952 23.7495 15.9229 23.4133 15.6012C23.2562 15.4513 23.1165 15.2825 22.9724 15.1195C22.5198 14.6058 22.0686 14.0921 21.616 13.5769C21.5767 13.5914 21.5374 13.6074 21.4981 13.622L21.4996 13.6205ZM21.5505 9.68675V11.2556C22.1341 11.2396 22.7352 11.3895 23.0597 10.8074C23.1674 10.6153 23.1557 10.2441 23.0364 10.0608C22.6799 9.51357 22.0992 9.66347 21.5505 9.68675Z" fill="white" stroke="white" stroke-width="0.1"/>
<path d="M16.0714 38.9249C15.5285 38.9249 14.9843 38.9307 14.4414 38.9235C13.6235 38.9118 13.0807 38.4345 13.0603 37.634C13.0297 36.4945 13.0326 35.3521 13.0603 34.2111C13.0792 33.4208 13.5828 32.942 14.3803 32.9289C15.5023 32.91 16.6259 32.91 17.7494 32.9289C18.5629 32.942 19.0432 33.3888 19.0694 34.2053C19.1043 35.3448 19.1058 36.4872 19.0694 37.6282C19.0417 38.4767 18.5207 38.9176 17.649 38.9249C17.1236 38.9293 16.5982 38.9249 16.0728 38.9249H16.0714ZM14.763 34.5924V37.2382H17.3754V34.5924H14.763Z" fill="white" stroke="white" stroke-width="0.1"/>
<path d="M24.7629 32.9265C25.3422 32.9265 25.9228 32.9119 26.5021 32.9308C27.2399 32.9556 27.7362 33.3616 27.7638 34.082C27.8104 35.3103 27.8104 36.5445 27.7595 37.7728C27.7304 38.48 27.2021 38.9108 26.4875 38.921C25.3654 38.9356 24.2419 38.9341 23.1184 38.921C22.3369 38.9137 21.7984 38.4262 21.7766 37.6491C21.7446 36.4906 21.7446 35.3307 21.7766 34.1723C21.7984 33.4126 22.3063 32.9541 23.0776 32.9279C23.638 32.909 24.1997 32.925 24.7615 32.925L24.7629 32.9265ZM23.472 34.6001V37.243H26.0946V34.6001H23.472Z" fill="white" stroke="white" stroke-width="0.1"/>
<path d="M16.1345 41.6485C16.7137 41.6485 17.2944 41.6281 17.8722 41.6543C18.5184 41.6834 19.0088 42.0822 19.0335 42.7226C19.0816 44.0047 19.0816 45.2927 19.0277 46.5734C19.0015 47.1963 18.4805 47.6212 17.8489 47.6329C16.6715 47.6547 15.4942 47.6547 14.3168 47.6343C13.6095 47.6227 13.0841 47.1162 13.0637 46.3886C13.0303 45.2126 13.0288 44.0338 13.0667 42.8579C13.0899 42.123 13.5993 41.6718 14.3415 41.6471C14.9382 41.6267 15.5364 41.6427 16.1345 41.6427C16.1345 41.6442 16.1345 41.6471 16.1345 41.6485ZM14.7563 45.9592H17.3614V43.3149H14.7563V45.9592Z" fill="white" stroke="white" stroke-width="0.1"/>
<path d="M24.7695 41.6406C25.3487 41.6406 25.9294 41.626 26.5086 41.645C27.2465 41.6712 27.7369 42.0772 27.766 42.802C27.8141 44.0128 27.8141 45.228 27.7704 46.4388C27.7428 47.1782 27.2203 47.6249 26.4839 47.6351C25.3618 47.6497 24.2383 47.6482 23.1148 47.6351C22.3362 47.6264 21.7992 47.1359 21.7788 46.3588C21.7482 45.2193 21.7511 44.0768 21.7759 42.9358C21.7933 42.1427 22.294 41.6682 23.0857 41.642C23.646 41.6231 24.2077 41.6391 24.7695 41.6391V41.6406ZM23.4743 45.9557H26.0953V43.3142H23.4743V45.9557Z" fill="white" stroke="white" stroke-width="0.1"/>
<path d="M28.7355 9.70764V11.1339C29.1953 11.1339 29.6276 11.131 30.0584 11.1339C30.7249 11.1411 31.1149 11.454 31.1004 11.9663C31.0858 12.4786 30.6973 12.774 30.0249 12.7799C29.6101 12.7828 29.1953 12.7799 28.7427 12.7799V14.2075C29.2812 14.2075 29.8197 14.2017 30.3567 14.209C30.9301 14.2163 31.307 14.5568 31.2969 15.04C31.2867 15.5057 30.9272 15.8317 30.3814 15.8375C29.565 15.8477 28.7486 15.8492 27.9336 15.8375C27.3631 15.8288 27.0633 15.5406 27.0604 14.9599C27.0487 12.9472 27.0487 10.9345 27.0604 8.9203C27.0647 8.34689 27.3616 8.05437 27.9438 8.03836C28.7587 8.01508 29.5766 8.01799 30.3916 8.03836C30.9257 8.05146 31.2939 8.41384 31.2954 8.865C31.2969 9.31469 30.9316 9.67853 30.3989 9.70181C29.859 9.72655 29.3176 9.70764 28.7355 9.70764Z" fill="white" stroke="white" stroke-width="0.1"/>
<path d="M43.732 9.64925C43.732 11.3069 43.732 12.883 43.732 14.4577C43.732 14.6571 43.7451 14.8579 43.7247 15.0558C43.6724 15.5608 43.3333 15.881 42.8705 15.8592C42.3698 15.8359 42.0962 15.5419 42.0773 15.0631C42.0482 14.302 42.0613 13.5394 42.0598 12.7782C42.0584 11.7653 42.0598 10.7524 42.0598 9.68854C41.7251 9.67399 41.4399 9.67108 41.1575 9.64634C40.6685 9.60268 40.3789 9.29706 40.3746 8.84445C40.3702 8.39766 40.6671 8.028 41.1372 8.01782C42.316 7.99162 43.4948 7.99162 44.6736 8.01782C45.1306 8.028 45.4493 8.42968 45.4362 8.85609C45.4231 9.29851 45.119 9.60704 44.63 9.64488C44.3622 9.66526 44.0915 9.64779 43.732 9.64779V9.64925Z" fill="white" stroke="white" stroke-width="0.1"/>
<path d="M37.6383 35.9005C37.6383 35.3388 37.6267 34.777 37.6412 34.2167C37.6601 33.4294 38.1055 32.9491 38.8826 32.9331C40.0411 32.9084 41.201 32.9098 42.3594 32.9302C43.1293 32.9448 43.6183 33.4367 43.6299 34.1949C43.6474 35.3359 43.6459 36.4769 43.6299 37.6178C43.6197 38.3877 43.0973 38.9073 42.3245 38.9189C41.2024 38.9335 40.0789 38.9335 38.9554 38.9189C38.1404 38.9087 37.6572 38.4125 37.6398 37.5844C37.6281 37.0226 37.6368 36.4609 37.6383 35.9005ZM39.3105 34.582V37.2264H41.949V34.582H39.3105Z" fill="white" stroke="white" stroke-width="0.1"/>
<path d="M46.3517 35.9038C46.3517 35.3421 46.3415 34.7803 46.3546 34.22C46.3735 33.4297 46.8159 32.948 47.5916 32.932C48.769 32.9087 49.9464 32.9087 51.1223 32.9335C51.8529 32.9495 52.3317 33.4516 52.3433 34.1894C52.3608 35.3479 52.3622 36.5078 52.3433 37.6662C52.3302 38.3793 51.8121 38.9004 51.099 38.9135C49.9216 38.9353 48.7443 38.9367 47.5669 38.9135C46.8683 38.8989 46.3866 38.3954 46.3619 37.6968C46.3415 37.1001 46.3575 36.502 46.3575 35.9038C46.356 35.9038 46.3546 35.9038 46.3531 35.9038H46.3517ZM48.0137 37.234H50.6711V34.61H48.0137V37.234Z" fill="white" stroke="white" stroke-width="0.1"/>
<path d="M37.6435 44.6248C37.6435 44.0456 37.6289 43.4649 37.6464 42.8857C37.6697 42.1376 38.1238 41.6647 38.8776 41.6501C40.055 41.6268 41.2324 41.6268 42.4083 41.6516C43.1403 41.6676 43.6191 42.1682 43.6308 42.9046C43.6482 44.063 43.6497 45.223 43.6308 46.3814C43.6177 47.096 43.101 47.6184 42.3894 47.6315C41.212 47.6534 40.0346 47.6548 38.8573 47.6315C38.1587 47.617 37.6901 47.1149 37.6464 46.4178C37.6435 46.3814 37.642 46.345 37.642 46.3086C37.642 45.7469 37.642 45.1851 37.642 44.6248C37.642 44.6248 37.6435 44.6248 37.645 44.6248H37.6435ZM41.9644 45.9725V43.3252H39.3215V45.9725H41.9644Z" fill="white" stroke="white" stroke-width="0.1"/>
<path d="M46.3571 44.6146C46.3571 44.0354 46.3426 43.4547 46.3615 42.8755C46.3848 42.1522 46.8316 41.669 47.5476 41.653C48.7424 41.6254 49.9387 41.6268 51.1336 41.653C51.8612 41.669 52.3371 42.1755 52.3473 42.9148C52.3633 44.0558 52.3633 45.1968 52.3473 46.3377C52.3371 47.1076 51.8132 47.6257 51.039 47.6359C49.9169 47.6505 48.7934 47.649 47.6699 47.6359C46.8782 47.6272 46.3906 47.1353 46.3557 46.3523C46.3542 46.3159 46.3528 46.2795 46.3528 46.2431C46.3528 45.7003 46.3528 45.156 46.3528 44.6132C46.3528 44.6132 46.3557 44.6132 46.3571 44.6132V44.6146ZM48.0395 43.3034V45.9506H50.6722V43.3034H48.0395Z" fill="white" stroke="white" stroke-width="0.1"/>
</g>
</svg>
