<svg  viewBox="0 0 20 20" fill="none" xmlns="http://www.w3.org/2000/svg">
<path d="M19.1292 8.4416C19.0589 8.2914 19.0045 8.13072 18.9152 7.9925C18.6437 7.57035 18.2071 7.48203 17.7495 7.43612C17.4092 7.40219 17.0704 7.35479 16.7311 7.31437C16.6308 7.30239 16.5719 7.26297 16.5325 7.15569C16.4282 6.87027 16.2965 6.59532 16.1892 6.31089C16.1667 6.25201 16.1782 6.15321 16.2151 6.10381C16.4631 5.76899 16.7221 5.44215 16.9781 5.11281C17.4581 4.49555 17.4242 3.89626 16.8758 3.34587C16.4975 2.96664 16.1208 2.5869 15.7396 2.21066C15.2431 1.72015 14.6268 1.68373 14.0724 2.10937C13.7316 2.37084 13.3903 2.63132 13.057 2.90177C12.9587 2.98161 12.8883 2.98011 12.7776 2.92772C12.5196 2.80596 12.2541 2.69818 11.9861 2.60138C11.8759 2.56146 11.8255 2.50507 11.8125 2.3938C11.7621 1.96815 11.7012 1.54301 11.6563 1.11687C11.5865 0.457701 11.0929 0.00261879 10.4323 0.00112152C9.85345 -0.00037384 9.27412 -0.00037384 8.69528 0.00112152C8.0441 0.00261879 7.5476 0.455204 7.47574 1.1019C7.42834 1.52804 7.36996 1.95318 7.32056 2.37882C7.30708 2.49609 7.25818 2.56096 7.14092 2.60387C6.86747 2.70417 6.59752 2.81594 6.33255 2.9382C6.23175 2.9846 6.16888 2.97512 6.08555 2.90825C5.7602 2.64728 5.42987 2.3933 5.10003 2.13831C4.49525 1.66975 3.88998 1.70968 3.34707 2.25258C2.97282 2.62683 2.59758 2.99957 2.22433 3.37532C1.72135 3.8813 1.67943 4.49057 2.11006 5.05493C2.37403 5.40123 2.64 5.74653 2.91294 6.08585C2.9828 6.17267 2.98081 6.23605 2.9364 6.33335C2.81564 6.59832 2.70187 6.86777 2.60207 7.14172C2.56215 7.2515 2.50577 7.3019 2.39449 7.31487C1.96885 7.36527 1.5442 7.42914 1.11757 7.47155C0.473863 7.53543 0.00331245 8.03342 0.00131647 8.67712C-0.0006795 9.26244 -0.000180506 9.84726 0.00131647 10.4326C0.00281346 11.0843 0.454902 11.5813 1.1006 11.6526C1.52674 11.6995 1.95188 11.7584 2.37803 11.8078C2.49429 11.8213 2.55966 11.8682 2.60257 11.9869C2.70137 12.2609 2.81514 12.5304 2.93789 12.7948C2.9838 12.8946 2.97781 12.9575 2.90995 13.0418C2.64898 13.3672 2.39599 13.6985 2.1405 14.0278C1.67045 14.6331 1.70887 15.2354 2.25278 15.7798C2.62652 16.154 3.00027 16.5288 3.37551 16.902C3.88698 17.4105 4.49425 17.4494 5.07009 17.0083C5.4159 16.7439 5.75621 16.4714 6.106 16.2119C6.15541 16.175 6.2547 16.165 6.31408 16.1875C6.59851 16.2948 6.87396 16.4255 7.15888 16.5303C7.26617 16.5697 7.30409 16.6311 7.31656 16.7304C7.36796 17.1435 7.42634 17.5562 7.47125 17.9699C7.53662 18.5657 7.82005 18.9155 8.39838 19.0961C8.41485 19.1011 8.42832 19.1166 8.44329 19.127C9.19029 19.127 9.93778 19.127 10.6848 19.127C10.6997 19.1166 10.7132 19.1011 10.7297 19.0961C11.307 18.916 11.5924 18.5642 11.6568 17.9699C11.7017 17.5562 11.7606 17.1435 11.8115 16.7304C11.824 16.6291 11.8639 16.5717 11.9707 16.5328C12.2561 16.4285 12.5315 16.2973 12.8155 16.19C12.8749 16.1675 12.9737 16.176 13.0231 16.2124C13.3773 16.4759 13.7226 16.7518 14.0729 17.0208C14.6238 17.4434 15.2466 17.4045 15.7406 16.9155C16.1213 16.5388 16.4985 16.159 16.8768 15.7803C17.4202 15.2359 17.4581 14.6341 16.9881 14.0283C16.7286 13.694 16.4656 13.3627 16.2136 13.0229C16.1767 12.9735 16.1677 12.8747 16.1902 12.8153C16.295 12.5368 16.4247 12.2674 16.526 11.9879C16.5694 11.8682 16.6358 11.8233 16.751 11.8098C17.1767 11.7599 17.6023 11.705 18.028 11.6536C18.3917 11.6097 18.6986 11.4585 18.9032 11.1491C18.997 11.0069 19.0544 10.8408 19.1282 10.6856V8.44409L19.1292 8.4416ZM16.543 14.8671C16.4756 14.9724 16.4277 15.0822 16.3498 15.1625C15.9676 15.5548 15.5779 15.94 15.1897 16.3262C14.9661 16.5487 14.8005 16.5597 14.553 16.3686C14.1198 16.0338 13.6867 15.699 13.2556 15.3616C13.0904 15.2324 12.9287 15.2274 12.7361 15.3142C12.301 15.5098 11.8614 15.6975 11.4148 15.8646C11.1927 15.948 11.0865 16.0797 11.0595 16.3102C10.9956 16.8596 10.9238 17.408 10.8459 17.9549C10.8115 18.1959 10.6828 18.3172 10.4492 18.3202C9.85794 18.3277 9.26663 18.3277 8.67532 18.3197C8.45028 18.3167 8.32054 18.1929 8.2886 17.9669C8.21126 17.4195 8.13591 16.8711 8.07404 16.3217C8.04709 16.0822 7.93831 15.9475 7.70977 15.8621C7.26317 15.695 6.82356 15.5078 6.38844 15.3122C6.19333 15.2244 6.03415 15.2394 5.86998 15.3681C5.43935 15.7059 5.00672 16.0418 4.5726 16.3751C4.33059 16.5612 4.16442 16.5492 3.94986 16.3352C3.5791 15.9664 3.21034 15.5957 2.84059 15.2259C2.56115 14.946 2.55367 14.8073 2.80017 14.4889C3.11653 14.0807 3.4314 13.6711 3.75225 13.2669C3.89297 13.0897 3.89896 12.9211 3.80515 12.715C3.61004 12.2863 3.42641 11.8517 3.26174 11.4111C3.17891 11.1896 3.04767 11.0818 2.81664 11.0548C2.26725 10.991 1.71885 10.9186 1.17146 10.8413C0.931441 10.8073 0.809187 10.6791 0.806193 10.4456C0.798709 9.85425 0.798708 9.26294 0.807191 8.67163C0.810185 8.44559 0.932938 8.31685 1.15998 8.28491C1.70738 8.20757 2.25577 8.13122 2.80516 8.07085C3.05566 8.0434 3.1844 7.92214 3.27072 7.68861C3.4319 7.25299 3.61503 6.82486 3.80714 6.40221C3.89796 6.20311 3.89347 6.03794 3.75824 5.86679C3.41942 5.43666 3.0841 5.00403 2.75027 4.5699C2.56415 4.32839 2.57612 4.16373 2.79169 3.94766C3.17392 3.56394 3.55714 3.18121 3.94087 2.79898C4.16342 2.57742 4.33009 2.56495 4.57809 2.75557C5.00722 3.0854 5.43586 3.41623 5.861 3.75105C6.03066 3.88478 6.19483 3.90075 6.39592 3.80994C6.83054 3.61383 7.27066 3.42721 7.71676 3.25955C7.93781 3.17622 8.04559 3.04548 8.07204 2.81395C8.13541 2.26456 8.20827 1.71616 8.28611 1.16876C8.32104 0.92226 8.45327 0.805498 8.70127 0.803003C9.27412 0.796516 9.84696 0.796515 10.4193 0.802504C10.6783 0.804998 10.809 0.919767 10.8454 1.17775C10.9228 1.72514 10.9946 2.27353 11.0595 2.82293C11.086 3.04598 11.1908 3.17522 11.4048 3.25556C11.8454 3.42172 12.2816 3.60136 12.7092 3.79796C12.9223 3.89577 13.0929 3.89127 13.2765 3.74507C13.7002 3.40775 14.1298 3.07841 14.5585 2.74808C14.7975 2.56395 14.9661 2.57592 15.1817 2.79049C15.5654 3.17272 15.9482 3.55545 16.3304 3.93918C16.5524 4.16223 16.5644 4.32739 16.3733 4.57639C16.0435 5.00553 15.7131 5.43416 15.3773 5.85881C15.2431 6.02896 15.2271 6.19114 15.3179 6.39273C15.5145 6.82735 15.7012 7.26696 15.8688 7.71356C15.9521 7.93512 16.0834 8.0419 16.3144 8.06885C16.8698 8.13322 17.4247 8.20707 17.9781 8.28591C18.1951 8.31685 18.3179 8.44609 18.3214 8.66165C18.3304 9.25895 18.3309 9.85674 18.3229 10.454C18.3199 10.6796 18.1966 10.8078 17.9691 10.8398C17.4152 10.9176 16.8608 10.9905 16.3054 11.0563C16.0824 11.0828 15.9536 11.1886 15.8723 11.4021C15.7027 11.8477 15.5175 12.2883 15.3219 12.723C15.2321 12.9221 15.2366 13.0862 15.3723 13.2584C15.7116 13.688 16.0475 14.1206 16.3788 14.5563C16.4442 14.6421 16.4816 14.7489 16.5425 14.8671H16.543Z" fill="currentColor"/>
<path d="M9.55903 13.5537C11.7501 13.5572 13.5535 11.7588 13.557 9.56821C13.5605 7.37813 11.7611 5.57427 9.57051 5.57077C7.38093 5.56728 5.57557 7.36765 5.57307 9.55674C5.57058 11.7478 7.36845 13.5502 9.55903 13.5537ZM9.5735 12.7423C7.81056 12.7453 6.38793 11.3332 6.38444 9.5757C6.38094 7.81175 7.7906 6.38813 9.54656 6.38214C11.3185 6.37565 12.7441 7.79179 12.7451 9.55873C12.7461 11.3207 11.3325 12.7398 9.5735 12.7428V12.7423Z" fill="currentColor"/>
</svg>
