
<svg  viewBox="0 0 66 66" fill="none" xmlns="http://www.w3.org/2000/svg">
<path d="M2.09092 19.6125C2.63831 18.0749 3.76385 17.5367 5.34606 17.5537C9.64217 17.5983 13.9383 17.5752 18.2344 17.5567C18.5957 17.5552 18.9955 17.4476 19.3092 17.2692C24.9661 14.0417 30.6153 10.8035 36.2537 7.5453C36.8442 7.20394 37.3162 7.21625 37.899 7.55145C44.5846 11.4047 51.2794 15.2426 57.9788 19.0744C58.4985 19.3711 58.7553 19.7263 58.7384 20.3552C58.6984 21.8313 58.7291 23.309 58.7245 24.7866C58.7215 25.7553 58.0864 26.1228 57.2361 25.6508C56.6165 25.3063 56.0029 24.9542 55.3848 24.6067C55.3741 24.6006 55.3494 24.6159 55.3002 24.6298V47.4865C55.5094 47.4957 55.7123 47.5142 55.9138 47.5142C57.2561 47.5173 58.5984 47.5096 59.9423 47.5173C60.6342 47.5219 61.0079 47.8248 61.0263 48.3645C61.0448 48.9334 60.6604 49.264 59.9515 49.2886C59.8362 49.2932 59.7209 49.2886 59.6056 49.2886C40.905 49.2886 22.203 49.2886 3.50245 49.2947C2.9443 49.2947 2.43381 49.2517 2.08784 48.7427V48.0523C2.39998 47.6372 2.81206 47.505 3.33024 47.5065C7.28192 47.5219 11.2351 47.5142 15.1868 47.5142C15.4098 47.5142 15.6327 47.5142 15.8603 47.5142V37.7764H15.1299C11.8686 37.7764 8.60581 37.7426 5.34452 37.7918C3.76231 37.8149 2.63523 37.2706 2.0863 35.7329V19.6141L2.09092 19.6125ZM36.0492 31.935C38.248 31.935 40.373 31.935 42.4996 31.935C43.5621 31.935 43.7804 32.1487 43.7804 33.2036C43.7804 37.7303 43.7804 42.2555 43.7804 46.7823V47.4757H53.5135C53.5228 47.3081 53.5381 47.1774 53.5381 47.0483C53.5381 39.3571 53.5335 31.6659 53.5443 23.9763C53.5443 23.6119 53.4028 23.4335 53.1076 23.2659C47.8874 20.2814 42.6718 17.2907 37.4608 14.2908C37.1748 14.1263 36.9687 14.1278 36.6874 14.2908C34.9837 15.2841 33.2692 16.2574 31.5594 17.24C31.4364 17.3107 31.3226 17.3968 31.2057 17.4768C31.9561 17.5813 32.6772 17.5675 33.3984 17.5844C34.9775 17.6229 36.0462 18.7192 36.0492 20.2999C36.0523 23.2336 36.0492 26.1689 36.0492 29.1027C36.0492 30.0207 36.0492 30.9386 36.0492 31.9381V31.935ZM19.0739 36.0005C23.7345 36.0005 28.395 36.0005 33.0555 36.0005C34.0919 36.0005 34.3271 35.7575 34.3271 34.7058C34.3271 30.0068 34.3271 25.3063 34.3271 20.6074C34.3271 19.5972 34.0872 19.3558 33.0786 19.3558C23.7391 19.3558 14.398 19.3558 5.05852 19.3558C4.05599 19.3558 3.81613 19.5972 3.81613 20.6135C3.81613 25.294 3.81613 29.9746 3.81613 34.6551C3.81613 35.7852 4.02986 36.002 5.14924 36.002C9.78978 36.002 14.4319 36.002 19.0724 36.002L19.0739 36.0005ZM36.0662 33.6695C35.9785 34.7781 36.2722 35.9743 35.3773 36.9231C34.4778 37.8748 33.3092 37.7657 32.1514 37.7933V47.4788H41.9998V33.6695H36.0677H36.0662ZM22.4167 17.5444C22.7504 17.5614 22.9303 17.5767 23.1117 17.5783C24.3587 17.5798 25.6057 17.6029 26.8512 17.566C27.2325 17.5552 27.6523 17.4537 27.9829 17.2677C30.7352 15.7147 33.4814 14.1494 36.2045 12.5472C36.8334 12.1781 37.327 12.1951 37.9528 12.5564C44.0372 16.0729 50.1369 19.5633 56.2336 23.0599C56.4596 23.189 56.6887 23.312 57.0039 23.4873C57.0039 22.6063 56.9809 21.8267 57.0132 21.0487C57.0285 20.6689 56.8978 20.4721 56.5719 20.286C50.22 16.6542 43.8742 13.0131 37.5346 9.35969C37.1886 9.16133 36.9426 9.17056 36.6059 9.3643C32.0945 11.966 27.5739 14.5538 23.0564 17.1477C22.8826 17.2477 22.715 17.3584 22.4152 17.5444H22.4167ZM30.3047 37.8195H22.2814V47.4696H30.3047V37.8195ZM20.4824 37.818H17.6716V47.4834H20.4824V37.818Z" fill="white"/>
<path d="M27.5265 25.3665V26.7888C28.3383 26.7888 29.1348 26.7888 29.9313 26.7888C30.142 26.7888 30.3542 26.7795 30.5648 26.7934C31.1307 26.8272 31.5197 27.1855 31.5243 27.6652C31.5289 28.1419 31.146 28.5386 30.5802 28.554C29.5853 28.5801 28.5905 28.5616 27.5511 28.5616V29.9778C28.3922 29.9778 29.2471 29.9778 30.1035 29.9778C30.3142 29.9778 30.5279 29.9609 30.7355 29.9839C31.2321 30.0393 31.5074 30.3637 31.512 30.8296C31.5166 31.2955 31.246 31.6738 30.7539 31.6846C29.3347 31.7153 27.9155 31.7168 26.4963 31.683C26.0027 31.6707 25.7505 31.2786 25.7459 30.8143C25.729 28.7231 25.7244 26.6319 25.7459 24.5423C25.7521 23.9411 26.1057 23.652 26.7161 23.649C28.0016 23.6413 29.2855 23.6413 30.571 23.649C31.1368 23.652 31.5258 24.0164 31.5258 24.5069C31.5258 24.9974 31.1383 25.3603 30.571 25.3665C29.5761 25.3757 28.5828 25.3696 27.5249 25.3696L27.5265 25.3665Z" fill="white"/>
<path d="M8.8386 31.7004C8.41729 31.7004 7.99445 31.7081 7.57314 31.6989C7.00422 31.6866 6.61828 31.3391 6.61367 30.847C6.60905 30.3535 6.99346 29.9891 7.55776 29.9814C8.2866 29.9706 9.01389 29.9829 9.74272 29.9768C10.347 29.9706 10.6607 29.7169 10.6284 29.2479C10.5899 28.699 10.2194 28.5698 9.74272 28.5852C9.49363 28.5929 9.24453 28.5914 8.99544 28.5852C7.74074 28.556 6.79664 27.6673 6.6275 26.3603C6.47989 25.2209 7.19489 23.9647 8.3358 23.7755C9.45365 23.5895 10.6222 23.6479 11.7647 23.6925C12.2014 23.7094 12.4382 24.1384 12.3874 24.5889C12.3336 25.0579 12.0445 25.3577 11.5433 25.3654C10.796 25.3762 10.0487 25.3654 9.30142 25.37C8.6464 25.3747 8.37885 25.5992 8.38808 26.1266C8.39577 26.6294 8.64794 26.8277 9.28144 26.8477C9.72119 26.8615 10.1733 26.8262 10.5976 26.9184C11.7124 27.1629 12.515 28.3423 12.392 29.4678C12.249 30.7717 11.2957 31.682 10.0472 31.7004C9.64431 31.7066 9.243 31.7004 8.84014 31.7004H8.8386Z" fill="white"/>
<path d="M19.141 30.9275C18.9103 31.172 18.7227 31.5011 18.4398 31.6395C18.0677 31.824 17.6925 31.661 17.445 31.2997C17.4127 31.2535 17.3927 31.1982 17.3681 31.1459C17.2143 30.8291 17.1021 30.2741 16.9022 30.2402C16.2333 30.1264 15.5306 30.191 14.8433 30.2172C14.7664 30.2202 14.6788 30.4048 14.6265 30.5185C14.5158 30.7615 14.4543 31.0306 14.3205 31.2581C14.0745 31.6764 13.6855 31.8194 13.2381 31.6226C12.8014 31.4303 12.583 31.0629 12.7491 30.5939C13.5117 28.4535 14.279 26.3132 15.097 24.1928C15.1924 23.9468 15.6014 23.6977 15.8781 23.6807C16.1288 23.6654 16.5501 23.9083 16.6377 24.1374C17.4573 26.2778 18.223 28.4397 19.001 30.5954C19.0257 30.6662 19.0226 30.7461 19.0318 30.823C19.0687 30.8584 19.1041 30.8937 19.141 30.9291V30.9275ZM15.3984 28.3859H16.364C16.198 27.9569 16.0534 27.5848 15.8689 27.105C15.689 27.5955 15.5583 27.9523 15.3984 28.3859Z" fill="white"/>
<path d="M21.1087 29.9767C22.1543 29.9767 23.1291 29.9736 24.1025 29.9767C24.779 29.9798 25.1403 30.2965 25.128 30.8578C25.1157 31.3913 24.759 31.6942 24.1163 31.6958C22.8708 31.7004 21.6238 31.7019 20.3783 31.6958C19.7079 31.6927 19.3774 31.3806 19.3743 30.7209C19.365 28.6882 19.3666 26.6555 19.3743 24.6227C19.3774 24.0108 19.731 23.6371 20.2584 23.6433C20.7858 23.6494 21.1026 24.0077 21.1056 24.6504C21.1149 26.1849 21.1087 27.718 21.1087 29.2525C21.1087 29.4616 21.1087 29.6707 21.1087 29.9736V29.9767Z" fill="white"/>
<path d="M41.2256 40.6429C41.2071 40.9027 41.2209 41.1764 41.161 41.4332C41.0549 41.8776 40.7443 42.1221 40.283 42.1021C39.8525 42.0836 39.5311 41.8499 39.4896 41.4132C39.4404 40.8827 39.4327 40.3415 39.4819 39.811C39.5234 39.359 39.8432 39.096 40.3045 39.0837C40.7689 39.0714 41.0672 39.3359 41.164 39.7772C41.224 40.054 41.2071 40.3476 41.2256 40.6429Z" fill="white"/>
</svg>
