<svg viewBox="0 0 58 53" fill="none" xmlns="http://www.w3.org/2000/svg">
<path d="M57.4731 35.8826C57.2117 37.0381 56.4427 37.8282 55.5936 38.5859C52.2309 41.5873 48.864 44.5859 45.5436 47.6336C43.8285 49.2081 41.8252 49.9658 39.5521 50.2554C36.2934 50.6701 33.0474 51.1833 29.7944 51.6458C27.3554 51.993 24.9177 52.3712 22.4688 52.6369C21.7758 52.7114 21.004 52.5455 20.3376 52.3009C16.5898 50.9274 12.8644 49.4949 9.13064 48.0835C8.99146 48.0315 8.85089 47.9837 8.7075 47.9331C8.5866 48.3731 8.52474 48.8229 8.3434 49.218C7.82747 50.3356 6.90808 50.933 5.68925 50.978C4.64615 51.016 3.59181 51.0146 2.55433 50.9176C1.15416 50.7868 0.0618549 49.5469 0.0126521 48.151C-0.00562327 47.6463 -0.00140571 47.1402 0.00843486 46.6355C0.0182754 46.1069 0.295218 45.7878 0.747885 45.7527C1.2371 45.7147 1.59699 46.0029 1.649 46.5399C1.69117 46.9659 1.66025 47.3989 1.66868 47.829C1.68696 48.7105 2.0862 49.2419 2.94514 49.3079C3.85469 49.3796 4.77971 49.3782 5.68925 49.3037C6.53835 49.2334 6.94182 48.6936 6.96572 47.8164C6.97275 47.5549 6.96572 47.292 6.96572 47.0305C6.96572 41.0264 6.96572 35.0208 6.96572 29.0167C6.96572 27.6784 6.51727 27.2271 5.18879 27.2257C4.55337 27.2257 3.91655 27.2229 3.28113 27.2257C2.16211 27.2313 1.66868 27.7135 1.66868 28.8283C1.66447 32.8686 1.66868 36.9088 1.66306 40.9491C1.66306 41.2063 1.69117 41.5395 1.55059 41.704C1.34816 41.9402 1.01358 42.1665 0.716957 42.1946C0.34161 42.2312 0.0773228 41.9275 0.0168736 41.5254C-0.00561915 41.3792 0.00421764 41.2274 0.00421764 41.077C0.00421764 36.9805 0.00140605 32.884 0.00421764 28.7875C0.00421764 26.811 1.24694 25.5654 3.21787 25.557C3.94748 25.5542 4.67708 25.5542 5.40669 25.557C7.3242 25.5654 8.55286 26.7562 8.6344 28.6807C8.63861 28.7735 8.64564 28.8663 8.65689 29.0701H12.4357V22.1072C12.0702 22.4446 11.7496 22.7398 11.4305 23.0378C10.9793 23.4582 10.5322 23.8855 10.0782 24.303C8.74405 25.5247 6.9854 25.5092 5.82562 24.2679C4.70098 23.0659 4.79377 21.2876 6.07866 20.0618C8.01444 18.2159 9.95163 16.3701 11.9282 14.5693C12.4469 14.097 12.6451 13.6274 12.6297 12.9302C12.5805 10.7427 12.603 8.55392 12.6001 6.36509C12.6001 5.06754 13.0894 4.58254 14.3968 4.57973C15.6507 4.57833 16.9033 4.57692 18.1573 4.57692C19.4745 4.57692 19.9553 5.04927 19.9679 6.34822C19.9693 6.50848 19.9848 6.66734 19.9974 6.91195C20.1802 6.75309 20.3039 6.65187 20.4206 6.54082C22.3817 4.69501 24.3428 2.84779 26.3024 1.00058C27.7181 -0.332118 29.3136 -0.333524 30.7335 0.996359C34.5713 4.58817 38.4091 8.17857 42.2456 11.7718C42.3946 11.911 42.5506 12.0558 42.6561 12.2273C42.8782 12.5857 42.8444 12.9526 42.5422 13.2493C42.2582 13.529 41.9096 13.5628 41.5666 13.3561C41.3936 13.2507 41.2432 13.1045 41.0928 12.9639C37.2958 9.41145 33.4987 5.8576 29.7031 2.30375C28.7977 1.45746 28.2368 1.45746 27.3469 2.29672C20.7172 8.54408 14.0875 14.7914 7.45634 21.0374C6.6452 21.8021 6.49759 22.5233 7.03179 23.1208C7.59129 23.7463 8.33497 23.6676 9.17423 22.8776C15.3176 17.0955 21.4581 11.3121 27.5986 5.52724C28.383 4.7892 28.6543 4.77935 29.4317 5.50756C35.6172 11.298 41.7999 17.0927 47.9953 22.8733C48.2792 23.1376 48.6672 23.3527 49.0412 23.4441C49.5065 23.558 49.9142 23.3176 50.1771 22.9001C50.4512 22.4657 50.4666 22.0144 50.1827 21.5856C50.0407 21.3706 49.8523 21.1808 49.6639 21.0022C48.3017 19.7201 46.9353 18.4437 45.5689 17.1644C45.4592 17.0618 45.3481 16.962 45.2441 16.8537C44.8336 16.4207 44.8013 15.9723 45.1499 15.6138C45.5 15.2539 45.9372 15.2694 46.3955 15.6701C46.6626 15.9034 46.9156 16.1551 47.1743 16.3983C48.4578 17.6002 49.7455 18.7979 51.0233 20.0041C51.8935 20.8251 52.2661 21.8218 51.9385 22.9985C51.6461 24.0472 50.9531 24.7529 49.8931 25.0326C48.7938 25.3222 47.8308 25.027 47.0084 24.2468C46.2493 23.5285 45.4831 22.8199 44.6481 22.0383V37.19C44.8927 37.0381 45.0614 36.9411 45.223 36.8329C47.4133 35.3667 49.5937 33.8878 51.7923 32.437C53.7422 31.1507 56.0997 31.727 57.102 33.7148C57.251 34.0101 57.348 34.3334 57.4689 34.6427V35.877L57.4731 35.8826ZM36.4565 39.6192C36.5479 37.9421 35.2194 36.3423 33.524 36.1216C30.9134 35.7814 28.2973 35.4777 25.6783 35.2162C23.1436 34.9618 20.7299 34.3489 18.4707 33.1399C17.4698 32.6043 16.4492 32.0869 15.3935 31.6736C13.2426 30.8302 10.9849 30.639 8.67376 30.7289C8.65829 30.8386 8.64002 30.9089 8.64002 30.9806C8.63861 35.8994 8.64283 40.8169 8.62596 45.7358C8.62596 46.121 8.83543 46.2011 9.10394 46.3023C12.9938 47.7714 16.8766 49.2601 20.7791 50.6954C21.3709 50.9133 22.0654 51.0103 22.6895 50.9471C24.5086 50.7629 26.3165 50.4733 28.1272 50.2147C31.674 49.7072 35.2124 49.1308 38.769 48.7034C41.1701 48.4152 43.2423 47.6407 45.0037 45.9003C46.9437 43.9842 49.0454 42.2312 51.0754 40.4064C52.4376 39.1806 53.7998 37.9547 55.1578 36.7247C55.737 36.2003 55.9394 35.5382 55.744 34.7917C55.5598 34.0874 55.0777 33.6361 54.3663 33.4548C53.7183 33.2903 53.1644 33.5166 52.6302 33.8751C48.9849 36.3212 45.3313 38.756 41.6889 41.2091C41.2587 41.4987 40.8384 41.5915 40.3224 41.5465C37.2887 41.2893 34.2508 41.0714 31.2157 40.8211C27.5845 40.5217 23.9562 40.2054 20.3264 39.8919C19.8822 39.854 19.4323 39.8118 18.9993 39.712C18.5818 39.615 18.378 39.2846 18.43 38.8671C18.4834 38.4285 18.7617 38.16 19.2186 38.1417C19.4787 38.1319 19.7416 38.1586 20.0017 38.1825C21.9557 38.3526 23.9098 38.5269 25.8638 38.6984C28.227 38.9079 30.5901 39.1173 32.9533 39.3254C34.1046 39.4266 35.2559 39.5208 36.4523 39.622L36.4565 39.6192ZM33.9682 34.4613C34.0779 34.5133 34.1243 34.5429 34.1763 34.5583C36.5929 35.2767 37.9115 36.8948 38.1828 39.3971C38.1983 39.5405 38.4373 39.7527 38.5933 39.7738C39.8487 39.9369 41.083 39.9664 42.0698 38.9557C42.2104 38.8123 42.3974 38.704 42.5801 38.614C42.9077 38.4524 42.9963 38.2134 42.9948 37.8493C42.9709 32.2205 42.9695 26.5903 42.9372 20.9615C42.9358 20.6719 42.7755 20.3036 42.5647 20.1053C38.0633 15.857 33.5423 11.627 29.0255 7.39554C28.868 7.24793 28.7049 7.10735 28.5615 6.97802C28.4702 7.02722 28.4322 7.03987 28.4069 7.06377C23.7214 11.4723 19.0359 15.8809 14.3588 20.2979C14.2407 20.409 14.1535 20.6156 14.1521 20.7773C14.1423 23.5833 14.1437 26.3878 14.162 29.1938C14.162 29.3372 14.3265 29.572 14.4572 29.6071C16.2566 30.0949 17.8831 30.9595 19.5307 31.803C20.6469 32.3737 21.8573 32.7603 23.1464 33.2776C23.1464 32.8517 23.1464 32.6324 23.1464 32.4117C23.145 29.6254 23.138 26.8391 23.1422 24.0514C23.1436 23.0884 23.6806 22.4277 24.5452 22.4179C27.2007 22.3883 29.8563 22.3926 32.5118 22.3954C33.1388 22.3954 33.5859 22.744 33.8136 23.2979C33.9429 23.6128 33.9598 23.9896 33.9612 24.3396C33.971 27.7051 33.9668 31.0705 33.9668 34.4655L33.9682 34.4613ZM32.2897 24.0851H24.8306V33.4407C27.3244 33.7275 29.8001 34.0129 32.2897 34.2997V24.0851ZM14.3194 6.27231V12.2877C15.6465 11.0422 16.8991 9.87115 18.1432 8.69028C18.2275 8.61015 18.2936 8.46957 18.295 8.35429C18.3091 7.66826 18.3021 6.98224 18.3021 6.27231H14.318H14.3194Z" fill="white"/>
</svg>
