<svg width="19" height="19" viewBox="0 0 19 19" fill="none" xmlns="http://www.w3.org/2000/svg">
<g clip-path="url(#clip0_1_972)">
<path d="M18.2964 0C18.3276 0.0163281 18.3573 0.035625 18.3899 0.0484896C18.7561 0.197422 18.9624 0.499245 18.9624 0.896563C18.9629 5.55948 18.9629 10.2229 18.9624 14.8858C18.9624 15.4034 18.6151 15.7824 18.0886 15.7933C17.2682 15.8101 16.4469 15.8012 15.626 15.7972C15.4098 15.7962 15.2836 15.6681 15.2876 15.4855C15.291 15.3039 15.4182 15.1926 15.6414 15.1916C16.4127 15.1886 17.1846 15.1906 17.956 15.1901C18.291 15.1901 18.3716 15.109 18.3716 14.7774C18.3716 11.0052 18.3716 7.23237 18.3716 3.46008V3.24781H0.600677C0.597708 3.30966 0.592266 3.37448 0.592266 3.4393C0.592266 7.22396 0.592266 11.0091 0.592266 14.7938C0.592266 15.104 0.67638 15.1901 0.985625 15.1901C2.42992 15.1906 3.87422 15.1901 5.31852 15.1901C5.64904 15.1901 5.80242 15.2846 5.80391 15.4895C5.80539 15.6958 5.64557 15.7997 5.32544 15.7997C3.91182 15.7997 2.4982 15.7908 1.08508 15.8041C0.553672 15.8091 0.179115 15.6216 0 15.1035V0.667969C0.120234 0.342891 0.342891 0.120729 0.666484 0C6.54313 0 12.4198 0 18.2964 0ZM18.3711 2.63081C18.3711 2.07961 18.3711 1.5487 18.3711 1.01729C18.3711 0.677864 18.2855 0.593255 17.9436 0.593255C15.0921 0.593255 12.2407 0.593255 9.38867 0.593255C6.58667 0.593255 3.78417 0.593255 0.982162 0.593255C0.690729 0.593255 0.59276 0.690729 0.592266 0.980182C0.591276 1.28943 0.592266 1.59867 0.592266 1.90792C0.592266 2.1469 0.592266 2.38589 0.592266 2.63081H18.3711Z" fill="currentColor"/>
<path d="M10.7409 19C9.54008 18.5839 8.44213 17.9402 7.28185 17.434C6.98646 17.3053 6.73411 17.1287 6.54857 16.8615C6.32937 16.5453 6.29375 16.2089 6.45851 15.8625C6.6218 15.5191 6.91224 15.3603 7.28284 15.3217C7.63216 15.2851 7.9513 15.4073 8.27737 15.4934C8.50844 15.5548 8.73802 15.6221 8.99531 15.6943C8.96266 15.6151 8.94088 15.5562 8.91367 15.4993C8.14625 13.8843 7.38031 12.2688 6.60943 10.6553C6.46396 10.3505 6.3838 10.0368 6.46198 9.70533C6.6307 8.98788 7.50797 8.70932 8.07698 9.20262C8.24372 9.3471 8.38029 9.54601 8.47974 9.74541C8.86963 10.5292 9.24221 11.3218 9.61281 12.1155C9.66971 12.2367 9.7281 12.254 9.85279 12.2303C10.4208 12.1209 10.9893 12.013 11.5608 11.926C12.2624 11.8191 12.9334 12.2199 13.1956 12.8082C13.6904 13.9175 14.2292 15.0065 14.7487 16.1045C15.062 16.766 14.8561 17.3548 14.1941 17.6735C13.3841 18.0634 12.5727 18.4498 11.7592 18.8323C11.6113 18.902 11.451 18.9451 11.2961 19.0005H10.7404L10.7409 19ZM7.4387 15.8917C7.24424 15.9135 7.07305 15.9461 6.98695 16.1431C6.91669 16.3044 6.96568 16.4825 7.13687 16.6398C7.21753 16.7141 7.30956 16.7828 7.40802 16.8298C8.39167 17.3004 9.37531 17.7704 10.3634 18.2311C10.7964 18.433 11.2229 18.4552 11.6736 18.2217C12.4118 17.8392 13.1723 17.5003 13.9229 17.1421C14.3034 16.9605 14.3856 16.7299 14.2035 16.3464C13.6825 15.2485 13.161 14.151 12.639 13.0541C12.4435 12.6439 12.0709 12.446 11.6266 12.5227C11.0507 12.6226 10.4752 12.7255 9.90029 12.8339C9.47476 12.9141 9.2912 12.8265 9.10367 12.4326C8.72219 11.6306 8.34516 10.826 7.95625 10.0274C7.88797 9.88692 7.78703 9.75432 7.67422 9.64596C7.55497 9.53067 7.39565 9.52473 7.24276 9.60044C7.09383 9.67367 7.01417 9.80083 7.03693 9.96114C7.05919 10.117 7.0963 10.2773 7.16211 10.4188C7.51539 11.1798 7.88005 11.9354 8.24026 12.6929C8.75979 13.7849 9.27833 14.8769 9.79885 15.9684C9.86417 16.106 9.89138 16.2405 9.78253 16.3657C9.6801 16.4835 9.55245 16.4825 9.40995 16.4399C9.03242 16.3271 8.65341 16.2208 8.27391 16.1154C7.99583 16.0382 7.71677 15.9664 7.4382 15.8922L7.4387 15.8917Z" fill="currentColor"/>
<path d="M3.77526 10.1526C4.23195 10.1526 4.68865 10.1502 5.14534 10.1531C5.60203 10.1561 5.83063 10.3822 5.83211 10.8359C5.83458 11.7513 5.83458 12.6662 5.83211 13.5815C5.83063 14.0402 5.59263 14.2733 5.13148 14.2742C4.23047 14.2757 3.32945 14.2757 2.42844 14.2742C1.95789 14.2733 1.72138 14.0377 1.72039 13.5677C1.71841 12.6587 1.71841 11.7498 1.72039 10.8404C1.72138 10.3872 1.95096 10.1566 2.40518 10.1531C2.86188 10.1497 3.31857 10.1521 3.77526 10.1521V10.1526ZM5.21758 13.6553V10.7726H2.34284V13.6553H5.21708H5.21758Z" fill="currentColor"/>
<path d="M12.2991 4.60037C12.7745 4.60037 13.2495 4.59839 13.725 4.60087C14.0922 4.60285 14.3351 4.83292 14.3371 5.19759C14.342 6.16837 14.342 7.13964 14.3371 8.11042C14.3351 8.45826 14.0897 8.70962 13.7409 8.71209C12.7716 8.71902 11.8028 8.71852 10.8335 8.71209C10.496 8.71011 10.2353 8.44985 10.2328 8.10746C10.2254 7.13667 10.2249 6.1654 10.2328 5.19462C10.2358 4.83886 10.4965 4.60186 10.8548 4.59988C11.3362 4.5974 11.8176 4.59938 12.2991 4.59938V4.60037ZM13.7349 5.20402H10.8498V8.10053H13.7349V5.20402Z" fill="currentColor"/>
<path d="M3.78719 4.60036C4.26269 4.60036 4.73769 4.59838 5.21318 4.60085C5.57191 4.60283 5.82178 4.82054 5.82574 5.17828C5.83662 6.16143 5.83712 7.14507 5.82524 8.12822C5.82128 8.48101 5.56745 8.71158 5.21269 8.71356C4.25576 8.719 3.29933 8.719 2.3424 8.71356C1.9624 8.71158 1.72193 8.44489 1.71995 8.0352C1.71699 7.30538 1.71896 6.57557 1.71896 5.84575C1.71896 5.64783 1.716 5.44992 1.71995 5.252C1.72837 4.83093 1.96141 4.60135 2.38001 4.60036C2.84907 4.59887 3.31813 4.60036 3.78719 4.60036ZM2.33547 8.09804H5.21417V5.20598H2.33597V8.09804H2.33547Z" fill="currentColor"/>
<path d="M13.7434 10.7644H10.8488C10.8394 10.8624 10.838 10.9544 10.8211 11.0435C10.7944 11.187 10.7059 11.2731 10.5569 11.2825C10.4011 11.2924 10.2858 11.2211 10.2521 11.0702C10.1428 10.5754 10.3639 10.1499 10.885 10.1514C11.8221 10.1543 12.7592 10.1484 13.6964 10.1538C14.1105 10.1563 14.3342 10.3879 14.3381 10.7995C14.3411 11.1271 14.3411 11.4547 14.3381 11.7817C14.3361 12.0019 14.2223 12.132 14.0432 12.131C13.8656 12.13 13.7459 11.993 13.7444 11.7802C13.7419 11.4477 13.7439 11.1147 13.7439 10.7644H13.7434Z" fill="currentColor"/>
<path d="M16.105 10.7563C15.8457 10.7563 15.5864 10.7588 15.3272 10.7558C15.1174 10.7533 14.9749 10.6321 14.9694 10.4589C14.964 10.2842 15.0986 10.1571 15.3148 10.1551C15.8393 10.1502 16.3637 10.1502 16.8887 10.1551C17.1143 10.1571 17.2336 10.2699 17.2301 10.4564C17.2272 10.641 17.1 10.7533 16.8823 10.7563C16.623 10.7592 16.3638 10.7568 16.1045 10.7568L16.105 10.7563Z" fill="currentColor"/>
<path d="M16.1045 5.19382C15.8452 5.19382 15.5864 5.19531 15.3272 5.19382C15.1149 5.19234 14.9749 5.07507 14.9699 4.90041C14.965 4.72328 15.101 4.60205 15.3158 4.60106C15.8462 4.59908 16.3771 4.59908 16.9075 4.60106C17.1129 4.60205 17.2331 4.71684 17.2306 4.89843C17.2277 5.07854 17.1054 5.19085 16.9006 5.19333C16.6354 5.1963 16.3702 5.19432 16.1045 5.19432V5.19382Z" fill="currentColor"/>
<path d="M7.61138 4.60057C7.87659 4.60057 8.1418 4.5981 8.40701 4.60156C8.59602 4.60404 8.72615 4.72279 8.7306 4.88706C8.73505 5.0543 8.59552 5.19185 8.40453 5.19333C7.86174 5.1968 7.31896 5.1968 6.77568 5.19333C6.59062 5.19185 6.46693 5.06469 6.46693 4.89448C6.46693 4.72328 6.58815 4.60503 6.77815 4.60255C7.05573 4.59859 7.33331 4.60156 7.61089 4.60156L7.61138 4.60057Z" fill="currentColor"/>
<path d="M15.7705 11.5382C15.9368 11.5382 16.1025 11.5328 16.2683 11.5397C16.4479 11.5471 16.5583 11.6639 16.5573 11.8316C16.5568 11.9969 16.4435 12.125 16.2698 12.129C15.9378 12.1364 15.6058 12.1359 15.2738 12.1295C15.0976 12.126 14.9645 11.983 14.969 11.8232C14.9734 11.6644 15.0947 11.5456 15.2723 11.5392C15.438 11.5333 15.6043 11.5377 15.77 11.5382H15.7705Z" fill="currentColor"/>
<path d="M15.766 6.56885C15.5998 6.56885 15.434 6.57331 15.2678 6.56737C15.0941 6.56143 14.9709 6.43823 14.9689 6.2794C14.967 6.12453 15.0936 5.98252 15.2599 5.97906C15.5978 5.97213 15.9363 5.97164 16.2742 5.97906C16.4464 5.98302 16.5592 6.11364 16.5572 6.27989C16.5557 6.44862 16.4444 6.56193 16.2638 6.56737C16.098 6.57281 15.9318 6.56836 15.7655 6.56836L15.766 6.56885Z" fill="currentColor"/>
<path d="M7.27691 5.97611C7.43079 5.97611 7.58517 5.97215 7.73905 5.9771C7.92459 5.98304 8.04681 6.10525 8.0473 6.27595C8.0473 6.44666 7.92608 6.56541 7.73657 6.56788C7.41595 6.57134 7.09582 6.57184 6.77519 6.56788C6.58618 6.56541 6.46545 6.44517 6.46743 6.27348C6.46892 6.10327 6.59212 5.98205 6.77816 5.9771C6.94441 5.97264 7.11115 5.97611 7.2774 5.97611H7.27691Z" fill="currentColor"/>
<path d="M11.7884 1.92312C10.1591 1.92312 8.5302 1.92312 6.90086 1.92213C6.81575 1.92213 6.72619 1.91866 6.64604 1.89343C6.5075 1.84939 6.43625 1.74301 6.44713 1.59606C6.45802 1.44861 6.54312 1.35807 6.68661 1.32986C6.75242 1.317 6.82119 1.31601 6.88898 1.31601C10.1536 1.31551 13.4183 1.31551 16.6829 1.31601C16.7566 1.31601 16.8486 1.30215 16.8991 1.33926C16.9847 1.4021 17.0748 1.49018 17.1069 1.58666C17.149 1.71382 17.0767 1.83455 16.9471 1.88353C16.8635 1.9152 16.767 1.92114 16.676 1.92163C15.0466 1.92361 13.4178 1.92312 11.7884 1.92312Z" fill="currentColor"/>
<path d="M4.55307 1.61945C4.55159 1.77481 4.4264 1.90197 4.27154 1.90445C4.11122 1.90692 3.97021 1.77135 3.9712 1.61499C3.97219 1.45666 4.11073 1.32801 4.27599 1.33296C4.43333 1.33742 4.55456 1.46309 4.55307 1.61994V1.61945Z" fill="currentColor"/>
<path d="M3.02318 1.90445C2.8594 1.90891 2.72482 1.78026 2.72333 1.61797C2.72234 1.4631 2.84505 1.33841 3.00289 1.33297C3.16469 1.32753 3.28839 1.43984 3.2963 1.59818C3.30471 1.76789 3.18695 1.9 3.02268 1.90445H3.02318Z" fill="currentColor"/>
<path d="M1.76893 1.33257C1.92776 1.33504 2.04651 1.45478 2.0475 1.61311C2.04849 1.77986 1.92182 1.90702 1.75755 1.90405C1.59427 1.90108 1.47453 1.77046 1.48096 1.60173C1.4869 1.44241 1.60763 1.3296 1.76843 1.33207L1.76893 1.33257Z" fill="currentColor"/>
</g>
<defs>
<clipPath id="clip0_1_972">
<rect width="19" height="19" fill="white"/>
</clipPath>
</defs>
</svg>
