<svg width="143" height="25" viewBox="0 0 143 25" fill="none" xmlns="http://www.w3.org/2000/svg">
<g clip-path="url(#clip0_1_897)">
<path d="M80.4851 0.00892258C80.8839 0.188258 81.3248 0.190922 81.7406 0.315214C83.884 0.955318 85.4027 2.28791 86.3022 4.31298C86.635 5.06228 86.8162 5.86397 86.8189 6.68607C86.8287 10.1734 86.8162 13.6615 86.8287 17.1488C86.8314 17.8812 87.1008 18.4974 87.7754 18.9031C88.84 19.5423 90.1428 18.9253 90.4828 17.8031C90.5435 17.6025 90.5667 17.4054 90.5667 17.1985C90.5658 11.7599 90.5711 6.32207 90.556 0.883406C90.5551 0.457262 90.6577 0.343623 91.0905 0.351614C92.6351 0.380911 94.1815 0.36937 95.727 0.357828C96.0072 0.356053 96.1099 0.419974 96.109 0.720939C96.1 6.2475 96.134 11.7749 96.0804 17.3015C96.0652 18.9058 95.5182 20.3635 94.318 21.5567C93.291 22.5777 92.238 23.5037 90.7683 23.81C90.4034 23.8863 90.0402 23.9698 89.6752 24.0506H87.7121C86.7564 23.9955 85.8409 23.8064 84.9878 23.3394C82.5374 21.998 81.2159 19.9392 81.1659 17.1692C81.1043 13.8 81.1481 10.4299 81.1543 7.05984C81.1552 6.43482 80.9973 5.88084 80.5083 5.47422C80.0237 5.07205 79.4651 4.90692 78.845 5.14307C78.1882 5.39255 77.8304 5.88883 77.7081 6.56356C77.6653 6.79793 77.6796 7.03498 77.6796 7.27113C77.6796 12.4594 77.6796 17.6469 77.6796 22.8352C77.6796 23.8109 77.659 23.8313 76.6873 23.8322C75.3345 23.8322 73.9817 23.8366 72.6298 23.8304C71.9668 23.8277 71.8758 23.7407 71.8758 23.0909C71.8722 17.622 71.8383 12.1531 71.8883 6.68518C71.9169 3.60807 73.9657 1.11601 76.9871 0.190922C77.4279 0.055976 77.8982 0.107468 78.3461 0.00981038H80.4877L80.4851 0.00892258Z" fill="#1DB2FF"/>
<path d="M28.6502 0.00892258H32.0402C33.0164 0.0799466 33.9739 0.228209 34.9064 0.547818C36.5929 1.12666 38.1054 1.99937 39.3466 3.26271C41.2366 5.18746 42.4082 7.49131 42.7598 10.1796C43.1034 12.811 42.7678 15.3448 41.54 17.7143C40.1372 20.4239 38.0117 22.3531 35.1107 23.4096C34.0872 23.7824 33.0369 23.9937 31.951 24.0488H28.7394C27.6686 23.9937 26.6246 23.8064 25.6225 23.4193C21.2983 21.7485 18.8051 18.5861 18.0109 14.0823C17.6272 11.9063 17.7896 9.74454 18.5722 7.66975C20.0856 3.66045 22.975 1.17638 27.1591 0.174053C27.649 0.0568638 28.1585 0.105693 28.6511 0.00892258H28.6502Z" fill="#1DB2FF"/>
<path d="M55.2373 0.00892258H58.6273C59.683 0.0657418 60.7091 0.258395 61.705 0.621505C64.506 1.64336 66.5887 3.46424 68.0174 6.07171C69.2345 8.29299 69.6387 10.6705 69.4344 13.1439C69.0096 18.2985 65.5393 22.5697 60.3379 23.8402C59.7445 23.9849 59.1342 23.9502 58.5381 24.0506H55.3266C54.3807 23.9769 53.4446 23.8606 52.5434 23.5348C47.9711 21.8826 45.3297 18.6403 44.5873 13.8861C44.1858 11.3151 44.515 8.80614 45.6751 6.46057C46.9395 3.9037 48.8857 2.02334 51.5413 0.883406C52.7281 0.373809 53.9506 0.0755076 55.2364 0.00892258H55.2373Z" fill="#1DB2FF"/>
<path d="M0.0116005 9.94426C0.225761 9.31747 0.297148 8.65517 0.528263 8.02927C1.21179 6.17643 2.23798 4.57395 3.77904 3.29729C5.52445 1.85107 7.51525 0.989899 9.7443 0.620573C11.7271 0.292087 13.725 0.378204 15.7194 0.35956C15.9451 0.357784 15.9889 0.451004 15.988 0.649871C15.9817 2.05437 15.9773 3.45798 15.9915 4.86249C15.9942 5.15457 15.8497 5.15724 15.6355 5.15635C14.4166 5.15102 13.1967 5.11995 11.9787 5.16256C10.5028 5.21494 9.17588 5.73697 8.02209 6.64874C6.50959 7.84372 5.80999 9.44798 5.62171 11.339C5.45306 13.032 5.80732 14.5848 6.72018 15.9955C7.66784 17.4595 9.07416 18.2994 10.7562 18.7228C11.512 18.9128 12.275 18.9031 13.0415 18.9022C13.8892 18.9004 14.736 18.9137 15.5828 18.896C15.8862 18.8897 15.9951 18.9688 15.9906 19.2875C15.9737 20.6174 15.9746 21.9482 15.9906 23.2781C15.9942 23.5986 15.9184 23.7149 15.5739 23.7061C14.579 23.683 13.5804 23.7345 12.5864 23.6901C10.8865 23.6146 9.19462 23.4646 7.56789 22.9017C5.6458 22.2367 3.95394 21.2051 2.62614 19.6719C1.27069 18.1049 0.399766 16.2814 0.0838796 14.2181C0.0785256 14.1808 0.0365859 14.1489 0.0116005 14.1143C0.0116005 12.724 0.0116005 11.3346 0.0116005 9.94426Z" fill="#1DB2FF"/>
<path d="M142.223 1.69392C139.778 4.46031 137.334 7.2267 134.888 9.99308C134.368 10.5808 134.115 10.6216 133.431 10.2284C132.507 9.69745 131.581 9.17098 130.666 8.6241C130.046 8.253 129.978 7.72742 130.459 7.19119C132.323 5.11551 134.194 3.04604 136.054 0.966815C136.312 0.67828 136.608 0.555763 136.991 0.556651C138.389 0.561978 139.786 0.564641 141.183 0.540671C141.647 0.532681 141.99 0.673841 142.222 1.07246V1.69304L142.223 1.69392Z" fill="#1DB2FF"/>
<path d="M135.443 24.0503C135.367 23.9047 135.208 23.9508 135.091 23.9064C134.164 23.5513 133.693 22.8313 133.783 21.8858C133.872 20.9643 134.532 20.2638 135.467 20.0978C136.334 19.9442 137.315 20.3739 137.621 21.1436C138.086 22.3119 137.705 23.6472 136.251 23.9641C136.182 23.9792 136.102 23.9641 136.067 24.0503H135.442H135.443Z" fill="#1DB2FF"/>
<path d="M125.451 0.00892258C125.485 0.113683 125.588 0.112795 125.666 0.141205C126.804 0.563798 127.291 1.66822 126.836 2.80372C126.456 3.751 125.113 4.23485 124.11 3.78651C123.05 3.31243 122.629 2.16894 123.132 1.124C123.339 0.692529 123.692 0.407545 124.114 0.20779C124.222 0.156297 124.335 0.13499 124.38 0.00892258H125.451Z" fill="#1DB2FF"/>
<path d="M110.704 0.363436C112.309 0.363436 113.915 0.371426 115.52 0.356333C115.834 0.35367 115.919 0.439786 115.914 0.750517C115.897 2.08044 115.896 3.41126 115.914 4.74118C115.919 5.06967 115.836 5.16289 115.498 5.162C112.599 5.14779 109.7 5.1549 106.802 5.15401C105.816 5.15401 104.793 5.95303 104.67 7.05745C104.546 8.17164 105.262 9.17042 106.325 9.41101C106.599 9.47316 106.874 9.50157 107.156 9.50157C109.549 9.49624 111.943 9.50512 114.336 9.49092C114.704 9.48825 114.855 9.55306 114.845 9.96855C114.816 11.239 114.819 12.5112 114.845 13.7817C114.852 14.1483 114.728 14.2131 114.395 14.2114C112.001 14.198 109.608 14.1989 107.215 14.2069C106.265 14.2105 105.525 14.6144 104.998 15.4099C104.25 16.5409 104.77 18.1425 106.025 18.6575C106.461 18.8368 106.892 18.906 107.352 18.906C110.058 18.9025 112.763 18.9114 115.469 18.8963C115.821 18.8945 115.921 18.9922 115.916 19.3393C115.897 20.655 115.898 21.9707 115.916 23.2856C115.921 23.6158 115.825 23.709 115.49 23.7073C112.443 23.6948 109.396 23.7197 106.348 23.6948C104.244 23.6771 102.358 23.0414 100.884 21.4824C99.7202 20.2528 99.0965 18.7844 99.0358 17.0745C98.9662 15.0938 99.6622 13.4443 101.113 12.109C101.36 11.8809 101.302 11.7735 101.097 11.579C100.176 10.7054 99.5016 9.65782 99.2624 8.41934C98.8805 6.44132 99.2428 4.60535 100.541 2.986C101.667 1.5815 103.134 0.78958 104.878 0.461981C105.266 0.389182 105.669 0.371426 106.066 0.368762C107.611 0.358109 109.158 0.364323 110.704 0.364323V0.363436Z" fill="#1DB2FF"/>
<path d="M138.266 23.0242C138.928 22.0761 138.928 21.4697 138.216 20.5082C137.338 19.3239 136.146 18.4911 134.903 17.7418C132.584 16.3435 130.169 15.1166 127.779 13.8444C125.815 12.7985 123.924 11.6426 122.31 10.0916C122.065 9.85725 121.842 9.59979 121.619 9.34499C121.094 8.74484 120.82 8.08165 120.859 7.24801C120.921 5.89056 120.871 4.52867 120.889 3.16945C120.902 2.14937 121.362 1.56874 122.449 1.2083C121.971 1.75696 121.831 2.3216 122.036 2.95904C122.226 3.55475 122.594 4.0315 123.049 4.43723C124.057 5.33746 125.208 6.0406 126.349 6.75528C129.758 8.89221 133.268 10.8596 136.779 12.8243C138.092 13.5594 139.079 14.6203 139.621 16.0488C139.738 16.356 139.795 16.6747 139.795 17.0014C139.799 18.3615 139.802 19.7207 139.799 21.0808C139.798 21.9198 139.181 22.694 138.265 23.0233L138.266 23.0242Z" fill="#1DB2FF"/>
<path d="M121.275 23.651C120.457 23.651 119.64 23.6483 118.823 23.6519C118.445 23.6537 118.051 23.5889 117.943 23.1991C117.828 22.7881 117.76 22.338 118.089 21.9402C119.696 19.9959 121.294 18.0445 122.894 16.0949C123.513 15.3421 124.126 14.5839 124.745 13.8319C125.227 13.2469 125.55 13.1936 126.199 13.5834C127.251 14.2155 128.304 14.8476 129.354 15.4832C130.022 15.8881 130.152 16.5229 129.661 17.1328C128.014 19.1792 126.353 21.2149 124.699 23.2559C124.459 23.5525 124.164 23.6927 123.773 23.6856C122.941 23.6705 122.109 23.6812 121.276 23.6812C121.276 23.6705 121.276 23.6599 121.276 23.6492L121.275 23.651Z" fill="#1DB2FF"/>
<path d="M37.0301 11.9495C37.1078 13.8014 36.575 15.4252 35.4828 16.8164C34.4495 18.133 33.0673 18.9418 31.3602 19.1824C29.9753 19.3777 28.6529 19.2117 27.4188 18.592C25.6082 17.6829 24.4509 16.2056 23.9512 14.2578C23.3132 11.7719 23.5925 9.38818 25.1478 7.30185C26.3578 5.67895 28.0461 4.83554 30.1297 4.78671C31.5449 4.75297 32.8424 5.0495 34.0096 5.83698C35.5364 6.86771 36.4224 8.33347 36.857 10.0931C37.0132 10.7234 37.0721 11.3626 37.0301 11.9495Z" fill="white"/>
<path d="M56.8524 4.80265C58.8406 4.71387 60.4066 5.42233 61.6818 6.74604C62.716 7.81939 63.3067 9.12535 63.5459 10.6089C63.7912 12.1306 63.6636 13.591 63.089 15.0195C62.2074 17.2132 60.6351 18.6861 58.3043 19.1264C55.7834 19.6023 53.5767 18.9151 51.8884 16.8741C50.9327 15.719 50.4865 14.3927 50.317 12.9251C50.0975 11.0252 50.433 9.26118 51.4922 7.66492C52.5559 6.06155 54.0809 5.12669 55.9806 4.81064C56.2983 4.75737 56.6329 4.80353 56.8516 4.80353L56.8524 4.80265Z" fill="white"/>
</g>
<defs>
<clipPath id="clip0_1_897">
<rect width="142.238" height="24.0594" fill="white"/>
</clipPath>
</defs>
</svg>
